<?xml version="1.0" standalone="no"?>
<!DOCTYPE svg PUBLIC "-//W3C//DTD SVG 1.1//EN" "http://www.w3.org/Graphics/SVG/1.1/DTD/svg11.dtd" >
<svg xmlns="http://www.w3.org/2000/svg">
<metadata>Generated by IcoMoon</metadata>
<defs>
<font id="icomoon" horiz-adv-x="1024">
<font-face units-per-em="1024" ascent="960" descent="-64" />
<missing-glyph horiz-adv-x="1024" />
<glyph unicode="&#x20;" d="" />
<glyph unicode="&#x63;" glyph-name="checkbox" d="M348 66l-348 348 88 88 260-258 588 586 88-88z" />
<glyph unicode="&#xe900;" glyph-name="logo" horiz-adv-x="4693" d="M4076.527 379.029l103.603 263.765 103.667-263.765h-207.275zM4494.199 168.627l-229.257 587.234c-3.132 9.459-9.399 18.859-12.531 25.118-6.327 6.327-12.587 9.459-21.99 9.459h-103.659c-9.395 0-18.859-3.136-21.986-9.463-3.132-6.263-9.395-12.527-12.531-25.118l-229.248-587.234v-6.263c0-6.323 3.127-12.587 6.259-18.859 6.263-6.259 9.395-6.259 18.859-6.259h65.954c12.527 0 21.986 3.132 25.118 9.395 6.263 6.263 9.395 9.395 9.395 15.718l40.841 103.603h295.211l40.781-103.603c3.191-6.323 6.323-9.455 9.455-15.723 6.272-6.272 12.531-9.399 25.122-9.399h65.954c6.272 0 12.531 3.132 18.859 6.263 6.259 6.272 6.259 9.399 6.259 18.859 3.136 3.127 3.136 6.259 3.136 6.259zM3680.845 441.856c-15.727 15.659-37.717 28.245-65.963 37.649-28.245 9.455-59.691 18.85-97.34 28.309-34.577 6.259-62.827 12.523-84.813 18.79-21.986 6.323-40.832 12.587-56.499 18.85-12.587 6.272-25.118 15.723-31.445 21.986-6.263 9.459-9.395 21.986-9.395 34.577 0 12.523 3.132 21.982 9.399 31.377 6.323 9.395 15.718 15.723 25.118 25.118 9.455 6.272 25.173 12.595 37.705 15.727 15.718 3.132 31.381 6.263 47.104 6.263 37.705 0 65.954-6.263 84.809-15.723 18.859-12.531 34.517-25.122 43.972-40.781 3.132-6.327 9.395-12.587 15.659-15.723 6.327-3.132 12.587-6.263 25.118-6.263h65.963c6.323 0 12.587 3.127 18.85 6.259s6.263 9.395 6.263 18.859c0 18.85-6.263 37.641-18.79 56.491-9.459 18.859-28.314 37.717-47.104 56.567-21.986 15.659-47.104 31.381-78.549 40.777-31.381 12.587-69.090 15.723-109.926 15.723-34.517 0-65.899-6.263-97.344-15.723-31.381-9.395-56.499-21.986-78.485-40.777-21.986-15.723-37.709-37.709-50.236-59.691-12.587-21.99-18.859-50.24-18.859-78.49 0-28.314 3.136-50.304 12.535-72.226 6.323-18.859 18.85-37.709 34.573-53.431 15.723-15.659 34.517-28.254 56.503-37.649 21.982-9.459 50.236-18.859 81.677-25.173 34.517-9.404 65.963-15.667 91.081-21.931 25.118-6.323 47.104-12.587 65.963-18.859 18.786-6.315 31.377-12.587 40.772-21.982 9.459-9.455 12.587-18.859 12.587-34.573 0-15.659-3.127-25.114-12.587-34.517-9.395-9.451-18.79-18.85-31.381-25.114-12.587-6.323-28.245-12.587-47.104-12.587s-34.517-3.136-53.367-3.136c-25.118 0-43.972 3.132-59.691 6.263-15.723 3.132-28.254 9.455-40.841 15.718-9.399 6.272-18.795 12.587-25.122 21.986-6.263 9.399-12.527 15.723-15.659 25.118-3.191 6.272-9.459 12.587-12.587 15.723-3.136 3.132-12.531 6.263-25.122 6.263h-65.963c-6.259 0-12.523-3.132-18.846-6.263-6.272-3.132-6.272-9.455-6.272-18.859 3.136-28.245 9.404-53.363 25.122-75.349 15.723-21.986 34.577-40.841 59.691-56.559 25.122-15.659 53.376-28.245 84.757-37.645 31.445-9.455 65.954-12.587 100.531-12.587 40.781 0 78.485 6.263 113.067 15.718 34.509 9.404 62.763 21.99 84.745 40.789 21.986 18.85 40.841 37.7 53.431 59.691 12.527 25.114 18.79 50.236 18.79 78.485 0 25.173-3.136 47.104-12.531 69.090-15.723 21.986-28.245 37.705-43.972 53.427zM2983.671 441.856c-15.714 15.659-37.7 28.245-65.954 37.649-28.245 9.455-59.691 18.85-97.34 28.309-34.573 6.259-62.822 12.523-84.809 18.79-21.99 6.323-40.845 12.587-56.508 18.85-12.587 6.272-25.118 15.723-31.445 21.986-6.259 9.459-9.387 21.986-9.387 34.577 0 12.523 3.127 21.982 9.387 31.377 6.327 9.395 15.727 15.723 25.122 25.118 9.455 6.272 25.118 12.595 37.709 15.727 15.718 3.132 31.381 6.263 47.104 6.263 37.705 0 65.954-6.263 84.809-15.723 18.85-12.531 34.517-25.122 43.968-40.781 3.132-6.327 9.399-12.587 15.659-15.723 6.327-3.132 12.587-6.263 25.122-6.263h65.963c6.259 0 12.587 3.127 18.846 6.259 6.272 3.132 6.272 9.395 6.272 18.859 0 18.85-6.272 37.641-18.859 56.491-9.395 18.859-28.245 37.717-47.104 56.567-21.931 15.659-47.104 31.381-78.485 40.777-31.386 12.587-69.090 15.723-109.931 15.723-34.517 0-65.963-6.263-97.34-15.723-31.386-9.395-56.503-21.986-78.49-40.777-21.982-15.723-37.705-37.709-50.236-59.691-12.587-21.99-18.85-50.24-18.85-78.49 0-28.314 3.132-50.304 12.527-72.226 6.323-18.859 18.859-37.709 34.577-53.431 15.659-15.659 34.517-28.254 56.499-37.649 21.986-9.459 50.236-18.859 81.677-25.173 34.517-9.404 65.963-15.667 91.076-21.931 25.114-6.323 47.104-12.587 65.954-18.859 18.795-6.315 31.381-12.587 40.781-21.982 9.455-9.455 12.587-18.859 12.587-34.573 0-15.659-3.132-25.114-12.587-34.517-9.399-9.451-18.859-18.85-31.386-25.114-12.587-6.323-28.245-12.587-47.104-12.587-18.85 0-34.573-3.136-53.367-3.136-25.118 0-43.972 3.132-59.691 6.263-15.723 3.132-28.254 9.455-40.841 15.718-9.395 6.272-18.859 12.587-25.118 21.986-6.263 9.399-12.531 15.723-15.723 25.118-3.132 6.272-9.395 12.587-12.527 15.723-3.132 3.132-21.986 6.263-31.386 6.263h-65.954c-6.327 0-12.587-3.132-18.859-6.263-6.263-3.132-6.263-9.455-6.263-18.859 3.136-28.245 9.399-53.363 25.122-75.349 15.659-21.986 34.517-40.841 59.631-56.559 25.118-15.659 53.427-28.245 84.813-37.645 31.381-9.455 65.954-12.587 100.471-12.587 40.841 0 78.549 6.263 113.067 15.718 34.569 9.404 62.818 21.99 84.804 40.789 21.986 18.85 40.841 37.7 53.376 59.691 12.587 25.114 18.846 50.236 18.846 78.485 0 25.173-3.132 47.104-12.587 69.090-9.399 21.986-21.986 37.705-37.649 53.427zM1944.196 379.029l103.607 263.765 103.667-263.765h-207.275zM2135.748 755.861c-3.132 9.459-9.395 18.859-12.527 25.118-6.332 6.327-12.595 9.459-21.99 9.459h-103.663c-9.399 0-18.859-3.136-21.99-9.463-3.132-6.263-9.395-12.527-12.527-25.118l-229.257-587.234v-6.263c0-6.323 3.132-12.587 6.263-18.859 6.272-6.259 9.459-6.259 18.859-6.259h65.954c12.527 0 21.986 3.132 25.118 9.395 6.272 6.263 9.399 9.395 9.399 15.718l40.841 103.603h295.211l40.845-103.603c3.132-6.323 6.263-9.455 9.395-15.723 6.263-6.272 12.527-9.399 25.118-9.399h65.963c6.259 0 12.523 3.132 18.85 6.263 6.263 6.272 6.263 9.399 6.263 18.859v6.259l-226.129 587.247zM1608.149 178.027l-270.037 298.342 251.238 273.225c3.132 3.132 6.263 9.395 6.263 12.587 0 6.272-3.132 12.531-6.263 18.795-6.323 6.327-9.455 6.327-18.859 6.327h-84.796c-9.399 0-18.859-3.2-25.122-6.327-6.263-3.132-12.587-9.395-18.85-15.659l-204.139-222.993v219.861c0 6.263-3.132 12.527-6.263 18.79-3.136 6.327-9.404 6.327-18.859 6.327h-75.349c-6.272 0-12.535-3.2-18.859-6.327-6.263-6.263-6.263-9.395-6.263-18.79v-599.825c0-6.323 3.132-12.587 6.263-18.859 6.323-6.259 9.455-6.259 18.859-6.259h75.349c6.323 0 12.587 3.132 18.859 6.263 6.259 6.272 6.259 9.399 6.259 18.859v241.775l219.861-244.915s6.263-6.323 12.527-12.587c6.323-6.272 18.859-9.399 31.445-9.399h87.936c6.272 0 12.531 3.132 18.799 6.263 6.315 6.272 6.315 9.399 6.315 18.859v6.259c0 3.132-3.127 6.272-6.315 9.399zM835.349-13.525c9.395 0 18.859 3.136 25.118 12.587 6.263 6.272 12.587 15.667 12.587 25.122 0 3.132 0 9.399-3.191 15.659l-317.141 439.663 310.878 430.259c3.132 6.263 3.132 9.395 3.132 15.723 0 9.399-3.132 18.795-12.527 25.122-9.459 6.259-18.859 9.391-28.245 9.391h-116.198c-18.859 0-31.445-3.132-40.841-12.587-9.459-9.399-15.723-18.795-18.859-21.931l-210.398-295.211-210.402 295.211c-6.263 3.136-9.455 12.531-18.859 21.931-9.382 9.451-21.978 12.587-40.828 12.587h-119.33c-9.399 0-18.859-3.132-25.122-12.587-6.263-6.272-12.587-15.659-12.587-25.131 0-3.132 0-9.395 3.191-15.659l307.742-423.996-320.329-442.795c-3.14-6.246-3.14-12.514-3.14-15.642 0-9.455 3.14-18.859 12.535-25.118 6.323-9.451 15.723-12.587 25.173-12.587h116.198c18.795 0 31.381 3.136 40.781 12.587 9.455 9.404 15.718 15.667 18.85 21.931l219.861 307.797 222.933-307.797c3.127-3.132 9.455-12.527 18.85-21.931 9.395-9.451 21.986-12.587 40.841-12.587h119.326z" />
<glyph unicode="&#xe901;" glyph-name="api" d="M746.667 320l-149.333-149.333-149.333 149.333h106.667v170.667h85.333v-170.667h106.667zM277.333 576l149.333 149.333 149.333-149.333h-106.667v-170.667h-85.333v170.667h-106.667zM512 874.667c-234.667 0-426.667-192-426.667-426.667s192-426.667 426.667-426.667 426.667 192 426.667 426.667-192 426.667-426.667 426.667z" />
<glyph unicode="&#xe902;" glyph-name="modules" d="M682.667 859.733l-241.067-241.067 241.067-241.067 241.067 241.067-241.067 241.067zM100.267 804.267v-341.333h341.333v341.333h-341.333zM100.267 36.267h341.333v341.333h-341.333v-341.333zM526.933 377.6v-341.333h341.333v341.333h-341.333z" />
<glyph unicode="&#xe903;" glyph-name="secure-mastercard" d="M968 488c0 10.016 8 20 20 20 10.016 0 18.016-10.016 18.016-20 0-12-8-22.016-18.016-22.016-12 0-20 10.016-20 22.016zM988 472c8 0 14.016 6.016 14.016 16 0 8-6.016 14.016-14.016 14.016s-16-6.016-16-14.016c0-10.016 8-16 16-16zM984 477.984h-4v18.016h8c2.016 0 2.016 0 4 0 2.016-2.016 2.016-4 2.016-6.016s0-4-2.016-4l2.016-8h-4l-2.016 8h-4zM984 488h2.016c2.016 0 2.016 0 4 0 0 2.016 0 2.016 0 2.016 0 2.016 0 2.016 0 2.016-2.016 0-2.016 0-4 0h-2.016v-4zM692 621.984c-2.016 2.016-4 2.016-8 2.016l-12 4c-4 2.016-10.016 2.016-16 2.016-42.016 0-72-40-72-96 0-42.016 22.016-68 56-68 10.016 0 18.016 0 30.016 4l4 36c-10.016-6.016-18.016-8-26.016-8-20 0-30.016 14.016-30.016 38.016 0 36 16 60 40 60 10.016 0 18.016-2.016 30.016-8zM586.016 597.984c-2.016 0-2.016 0-4 0-10.016 0-16-6.016-26.016-20l2.016 20h-28l-20-130.016h32c12 80 14.016 92 30.016 92 0 0 0 0 2.016 0 4 16 6.016 28 12 38.016zM392 469.984l4 28c-2.016 0-4 0-8 0-8 0-12 2.016-12 8 0 2.016 2.016 4 2.016 6.016l8 54.016h16l4 32h-16l4 18.016h-32l-14.016-88-2.016-10.016-2.016-12c0-4 0-8 0-12 0-18.016 8-28 26.016-28 6.016 0 14.016 2.016 22.016 4zM266.016 556c0-16 6.016-28 24-36 12-6.016 14.016-8 14.016-14.016 0-8-6.016-12-18.016-12-10.016 0-18.016 2.016-28 6.016l-6.016-30.016h2.016l6.016-2.016c2.016 0 4 0 8 0 8-2.016 14.016-2.016 18.016-2.016 34.016 0 50.016 14.016 50.016 44 0 16-6.016 28-22.016 36-14.016 6.016-16 8-16 14.016s6.016 10.016 16 10.016c6.016 0 14.016-2.016 22.016-2.016l6.016 30.016c-8 0-22.016 2.016-28 2.016-36 0-50.016-20-48-44zM950.016 468h-32l2.016 14.016c-8-10.016-18.016-16-30.016-16-24 0-38.016 22.016-38.016 54.016 0 42.016 24 80 52 80 12 0 22.016-6.016 30.016-18.016l8 44h32zM902.016 497.984c14.016 0 26.016 18.016 26.016 44 0 16-6.016 26.016-18.016 26.016-14.016 0-24-18.016-24-44 0-16 4-26.016 16-26.016zM494.016 472c-10.016-4-22.016-6.016-32-6.016-36 0-56 20-56 58.016 0 44 24 76 56 76 28 0 44-18.016 44-46.016 0-10.016 0-20-4-32h-64c0-2.016 0-4 0-4 0-16 10.016-22.016 28-22.016 12 0 22.016 2.016 34.016 8zM476 548c0 2.016 0 4 0 6.016 0 10.016-6.016 16-14.016 16-12 0-18.016-8-22.016-22.016zM136 468l24 158.016h-50.016l-30.016-98.016-2.016 98.016h-46.016l-26.016-158.016h30.016l20 122.016 2.016-122.016h22.016l42.016 122.016-18.016-122.016zM218.016 525.984c-2.016 0-4 0-6.016 0-18.016 0-28-6.016-28-20 0-8 4-12 12-12 12 0 22.016 12 22.016 32zM242.016 468h-26.016v14.016c-8-10.016-20-16-34.016-16-18.016 0-30.016 14.016-30.016 36 0 30.016 22.016 48 58.016 48 2.016 0 8 0 12 0 2.016 4 2.016 6.016 2.016 8 0 8-6.016 12-20 12-10.016 0-20-2.016-28-4h-4l-4-2.016 6.016 30.016c16 4 26.016 6.016 38.016 6.016 28 0 42.016-12 42.016-38.016 0-6.016 0-10.016-2.016-26.016l-8-44v-16l-2.016-4zM748 525.984c-4 0-6.016 0-8 0-18.016 0-26.016-6.016-26.016-20 0-8 4-12 10.016-12 14.016 0 24 12 24 32zM772 468h-28l2.016 14.016c-8-10.016-20-16-34.016-16-18.016 0-30.016 14.016-30.016 36 0 30.016 20 48 56 48 4 0 8 0 14.016 0 0 4 2.016 6.016 2.016 8 0 8-6.016 12-22.016 12-8 0-20-2.016-26.016-4h-6.016l-2.016-2.016 4 30.016c16 4 28 6.016 40 6.016 26.016 0 42.016-12 42.016-38.016 0-6.016 0-10.016-2.016-26.016l-8-44v-10.016l-2.016-6.016v-4zM862.016 597.984c-2.016 0-2.016 0-4 0-10.016 0-16-6.016-26.016-20l2.016 20h-28l-20-130.016h32c12 80 14.016 92 30.016 92 2.016 0 0 0 2.016 0 4 16 8 28 12 38.016zM726.016 344c0-30.016-8-46.016-24-46.016-10.016-2.016-16 10.016-16 28 0 20 10.016 44 24 44 12 0 16-14.016 16-26.016zM758.016 344c0 32-16 56-46.016 56-34.016 0-58.016-30.016-58.016-76 0-32 14.016-58.016 46.016-58.016 34.016 0 58.016 24 58.016 78.016zM664 424c-2.016 0-2.016 2.016-6.016 2.016l-12 4c-4 2.016-10.016 2.016-14.016 2.016-40 0-68-40-68-96 0-42.016 20-68 52-68 8 0 16 0 28 4l4 36c-10.016-6.016-18.016-8-26.016-8-16 0-28 14.016-28 38.016 0 36 16 60 40 60 8 0 16-2.016 26.016-8zM466.016 400c-2.016 0-2.016 0-4 0-10.016 0-16-6.016-24-20l2.016 18.016h-26.016l-20-128h30.016c12 78.016 14.016 92 28 92 2.016 0 2.016 0 4 0 2.016 16 6.016 28 10.016 38.016zM858.016 272h-28l2.016 12c-8-10.016-18.016-14.016-28-14.016-22.016 0-36 22.016-36 54.016 0 42.016 22.016 78.016 48 78.016 12 0 22.016-6.016 30.016-18.016l6.016 46.016h30.016zM814.016 301.984c14.016 0 24 18.016 24 44 0 16-6.016 24-16 24-14.016 0-24-18.016-24-42.016 0-18.016 6.016-26.016 16-26.016zM184 272c-12-4-22.016-6.016-32-6.016-34.016 0-50.016 20-50.016 58.016 0 44 22.016 78.016 52 78.016 24 0 40-18.016 40-48 0-10.016 0-18.016-4-32h-60c0-2.016 0-2.016 0-4 0-14.016 10.016-22.016 26.016-22.016 12 0 22.016 2.016 32 8zM166.016 348c0 4 0 6.016 0 8 0 10.016-4 16-14.016 16s-16-8-20-24zM542.016 272c-10.016-4-20-6.016-32-6.016-34.016 0-50.016 20-50.016 58.016 0 44 22.016 78.016 52 78.016 24 0 40-18.016 40-48 0-10.016 0-18.016-4-32h-60c0-2.016 0-2.016 0-4 0-14.016 10.016-22.016 28-22.016 10.016 0 20 2.016 30.016 8zM524 348c0 4 0 6.016 0 8 0 10.016-4 16-14.016 16s-16-8-18.016-24zM962.016 272c-10.016-4-20-6.016-32-6.016-32 0-50.016 20-50.016 58.016 0 44 22.016 78.016 52 78.016 24 0 40-18.016 40-48 0-10.016 0-18.016-2.016-32h-60c-2.016-2.016-2.016-2.016-2.016-4 0-14.016 10.016-22.016 28-22.016 10.016 0 20 2.016 30.016 8zM944 348c0 4 0 6.016 0 8 0 10.016-4 16-14.016 16-8 0-16-8-18.016-24zM94.016 393.984l8 32c-8 6.016-22.016 8-36 8-24 0-50.016-14.016-50.016-54.016 0-46.016 44-36 44-62.016 0-18.016-16-20-24-20-10.016 0-22.016 4-28 10.016l-8-34.016c10.016-4 24-8 36-8 26.016 0 56 12 56 56 0 50.016-46.016 42.016-46.016 64 0 12 10.016 16 22.016 16s20-4 26.016-8zM272 272l4 34.016c-8-4-12-6.016-20-6.016-14.016 0-22.016 12-22.016 28 0 26.016 12 40 28 40 6.016 0 14.016-2.016 20-6.016l6.016 30.016c-8 6.016-20 8-28 8-34.016 0-58.016-32-58.016-74.016 0-32 16-58.016 42.016-58.016 12 0 22.016 2.016 28 4zM384 304l14.016 94.016h-32l-8-58.016c-2.016-20-10.016-36-24-36-8 0-12 8-12 16 0 6.016 2.016 12 2.016 18.016l10.016 60h-34.016l-8-58.016c-2.016-14.016-2.016-20-2.016-28 0-24 10.016-44 28-44 16 0 26.016 10.016 36 24v0l-2.016-22.016h28c0 12 2.016 24 4 34.016zM992 272v22.016h6.016v4h-18.016v-4h6.016v-22.016h6.016zM1024 272v26.016h-8l-4-20-4 20h-6.016v-26.016h4v22.016l4-22.016h6.016l4 22.016v-22.016z" />
<glyph unicode="&#xe904;" glyph-name="secure-visa" d="M348 396l10.016 66.016 32-66.016h56l-42.016 70.016c22.016 6.016 40 22.016 44 46.016 4 30.016-6.016 54.016-50.016 54.016h-68l-26.016-170.016zM370.016 532h12c12 0 22.016-8 20-20s-14.016-22.016-26.016-22.016h-14.016zM702.016 396l28 170.016h-44l-28-170.016zM528 565.984h-44l-28-170.016h44zM100 632l6.016-78.016h6.016l64 108v4h-146.016v-4zM256 737.984c-56-88-110.016-178.016-164-272l-10.016 124h-82.016v-4c24-4 32-20 36-54.016l14.016-136h60c56 116 114.016 228 172 342.016zM840 432h-54.016l6.016 32h50.016l6.016 36h-50.016l4 30.016h52l6.016 36h-96l-28-170.016h98.016zM590.016 464h48l6.016 36h-48l4 30.016h54.016l6.016 36h-98.016l-28-170.016h44zM944 565.984h-58.016l-26.016-170.016h56c56 0 100 36 108 86.016 4 34.016-12 84-80 84zM978.016 481.984c-6.016-30.016-28-50.016-56-50.016-4 0-8 0-12 0l14.016 98.016c4 0 8 0 10.016 0 34.016 0 46.016-24 44-48zM838.016 293.984c-10.016 4-24 10.016-24 20 0 8 10.016 12 20 12 16 2.016 28-4 38.016-6.016 2.016 10.016 4 20 4 32-36 12-80 4-96-16-6.016-8-10.016-18.016-10.016-30.016 0-16 14.016-28 26.016-34.016 10.016-6.016 32-12 32-24 0-8-10.016-14.016-20-14.016-18.016-2.016-36 4-50.016 10.016 0-12-2.016-22.016-4-34.016 32-12 80-10.016 102.016 10.016 8 8 16 22.016 16 36-2.016 22.016-18.016 30.016-34.016 38.016zM686.016 204h40l26.016 152h-42.016zM246.016 529.984h52l6.016 36h-96l-28-170.016h98.016l6.016 36h-54.016l4 32h52l6.016 36h-52zM952 356c-6.016 0-16-2.016-20-6.016-2.016-4-6.016-12-8-18.016l-56-128c14.016 0 28 0 44 0l8 24c18.016 0 36 0 52 0 2.016-8 4-16 6.016-24 12 0 24 0 38.016 0l-34.016 152h-30.016zM932 257.984l20 56 14.016-56zM366.016 300c-12 0-22.016-4-30.016-12l10.016 68h-28l-22.016-152h28l2.016 12c6.016-10.016 14.016-14.016 26.016-14.016 22.016 0 44 22.016 48 48 4 28-12 50.016-34.016 50.016zM348 229.984c-12 0-18.016 8-16 20 0 12 10.016 22.016 22.016 22.016 10.016 0 18.016-10.016 16-22.016s-12-20-22.016-20zM652 356c-14.016-34.016-28-70.016-42.016-102.016l-4 20c0 0 0 0 0 0v-4l-14.016 70.016c-2.016 12-10.016 16-18.016 16h-68v-4c14.016-2.016 30.016-8 44-18.016v2.016c0-2.016 0-2.016 0-2.016s0 0 0 0l36-130.016h44c22.016 52 44 100 64 152-14.016 0-28 0-42.016 0zM582.016 309.984c2.016-2.016 2.016-2.016 2.016-2.016 2.016-2.016 2.016-2.016 2.016-4 2.016 0 4-2.016 4-4 0 0 0 0 0 0-2.016 2.016-4 6.016-8 10.016zM592 300c0 0 0 0 0 0 0-2.016 2.016-4 2.016-6.016 0 2.016-2.016 4-2.016 6.016zM452 249.984l-16 48h-34.016l30.016-82.016-38.016-58.016h34.016l88 140h-34.016z" />
<glyph unicode="&#xe905;" glyph-name="secure-pci" d="M528 468c0-8-6.016-14.016-16-14.016-4 0-10.016 2.016-12 4l2.016 4c2.016-2.016 6.016-2.016 10.016-2.016 8 0 10.016 2.016 10.016 8 0 4-2.016 6.016-8 8-8 4-12 8-12 14.016 0 8 6.016 14.016 14.016 14.016 6.016 0 8-2.016 10.016-4v-4c-2.016 0-6.016 2.016-10.016 2.016-6.016 0-8-4-8-8s2.016-6.016 8-8 12-6.016 12-14.016zM536 472c0 10.016 6.016 18.016 14.016 18.016 12 0 14.016-10.016 14.016-16 0-2.016 0-2.016 0-2.016h-24c0-10.016 6.016-12 12-12s8 0 10.016 2.016v-6.016c-2.016 0-4-2.016-10.016-2.016-10.016 0-16 8-16 18.016zM540 476h18.016c0 4 0 10.016-8 10.016-6.016-2.016-8-6.016-10.016-10.016zM596 461.984c-2.016-2.016-4-2.016-8-2.016-6.016 0-12 4-12 12s4 14.016 12 14.016c4 0 6.016-2.016 8-2.016v4c0 0-4 2.016-8 2.016-10.016 0-18.016-8-18.016-18.016s6.016-18.016 16-18.016c6.016 0 10.016 2.016 10.016 2.016zM632 464v0 26.016h-6.016v-22.016c0 0 0-2.016 0-2.016-2.016-4-4-6.016-8-6.016-6.016 0-8 4-8 10.016v20h-6.016v-20c0-12 6.016-16 12-16s10.016 4 10.016 6.016l2.016-4h4c0 2.016 0 4 0 8zM642.016 453.984h6.016v18.016c0 2.016 0 2.016 0 4 2.016 4 4 8 8 8 2.016 0 2.016 0 4 0v6.016c-2.016 0-2.016 0-2.016 0-4 0-8-4-10.016-8v6.016h-6.016c0-2.016 0-6.016 0-10.016zM672 497.984c0 4-2.016 6.016-4 6.016s-4-2.016-4-6.016c0-2.016 2.016-4 4-4 4 0 4 2.016 4 4zM672 453.984v34.016h-6.016v-34.016h6.016zM690.016 496l-6.016-2.016v-6.016h-6.016v-4h6.016v-18.016c0-4 0-8 2.016-10.016s4-2.016 6.016-2.016c2.016 0 4 0 6.016 0v6.016c-2.016-2.016-2.016-2.016-4-2.016-4 0-4 4-4 8v18.016h8v4h-8zM726.016 489.984l-6.016-20c0-4-2.016-6.016-2.016-8 0 2.016-2.016 4-2.016 6.016l-8 20h-8l14.016-30.016c0-2.016 0-2.016 0-2.016s0-2.016 0-2.016c-2.016-2.016-4-6.016-6.016-6.016-2.016-2.016-4-4-6.016-4l2.016-4c2.016 0 4 0 8 4s8 8 12 20l10.016 26.016h-8zM516 412c-6.016 2.016-8 4-8 8s2.016 8 8 8c4 0 8-2.016 10.016-2.016v4c-2.016 2.016-4 4-10.016 4-8 0-14.016-6.016-14.016-14.016 0-6.016 4-10.016 12-14.016 6.016-2.016 8-4 8-8 0-6.016-2.016-8-10.016-8-4 0-8 0-10.016 2.016l-2.016-4c2.016-2.016 8-4 12-4 10.016 0 16 6.016 16 14.016s-4 10.016-12 14.016zM544 425.984h-6.016v-6.016h-6.016v-6.016h6.016v-18.016c0-4 0-8 2.016-8 2.016-2.016 4-4 8-4 2.016 0 4 0 4 2.016v4c0 0-2.016 0-4 0s-4 2.016-4 6.016v18.016h10.016v4h-10.016zM584 405.984v-14.016c0-2.016 0-4 0-8h-6.016v4c-2.016-2.016-6.016-4-10.016-4-6.016 0-10.016 4-10.016 10.016 0 8 6.016 12 20 12v2.016c0 2.016-2.016 8-8 8-2.016 0-6.016-2.016-8-4l-2.016 4c2.016 2.016 6.016 4 12 4 10.016 0 12-8 12-14.016zM578.016 401.984c-6.016 0-14.016 0-14.016-8 0-4 2.016-6.016 6.016-6.016s6.016 4 8 6.016c0 0 0 2.016 0 2.016zM610.016 420c-6.016 0-10.016-4-10.016-6.016l-2.016 4h-4c0-2.016 0-4 0-8v-26.016h6.016v22.016c0 0 0 0 0 2.016 2.016 4 4 6.016 8 6.016 6.016 0 8-4 8-10.016v-20h6.016v22.016c0 10.016-8 14.016-12 14.016zM662.016 393.984c0-4 0-6.016 0-10.016h-6.016v6.016c-2.016-2.016-6.016-6.016-10.016-6.016-10.016 0-16 6.016-16 18.016 0 10.016 8 18.016 16 18.016 6.016 0 8-4 10.016-6.016v20h6.016v-40zM656 405.984c0 0 0 0 0 2.016-2.016 4-6.016 8-10.016 8-6.016 0-10.016-6.016-10.016-14.016 0-6.016 4-12 10.016-12 4 0 8 2.016 8 6.016 2.016 2.016 2.016 2.016 2.016 4v6.016zM696 405.984v-14.016c0-2.016 0-4 0-8h-4l-2.016 4c-2.016-2.016-4-4-10.016-4s-10.016 4-10.016 10.016c0 8 8 12 20 12v2.016c0 2.016 0 8-8 8-2.016 0-6.016-2.016-8-4l-2.016 4c2.016 2.016 6.016 4 12 4 10.016 0 12-8 12-14.016zM690.016 401.984c-8 0-14.016 0-14.016-8 0-4 2.016-6.016 6.016-6.016s6.016 4 8 6.016c0 0 0 2.016 0 2.016zM712 412v0l-2.016 6.016h-4c0-2.016 0-6.016 0-10.016v-24h6.016v18.016c0 2.016 0 2.016 0 4 2.016 4 4 8 8 8 2.016 0 2.016 0 4 0v6.016c-2.016 0-2.016 0-2.016 0-4 0-8-4-10.016-8zM758.016 393.984c0-4 0-6.016 0-10.016h-6.016v6.016c-2.016-2.016-6.016-6.016-12-6.016-8 0-14.016 6.016-14.016 18.016 0 10.016 6.016 18.016 16 18.016 4 0 8-4 10.016-6.016v20h6.016v-40zM752 405.984c0 0 0 0 0 2.016-2.016 4-6.016 8-10.016 8-6.016 0-10.016-6.016-10.016-14.016 0-6.016 4-12 10.016-12 4 0 8 2.016 10.016 6.016 0 2.016 0 2.016 0 4zM778.016 404c-4 2.016-6.016 4-6.016 6.016s2.016 4 6.016 4c2.016 0 6.016 0 6.016-2.016l2.016 6.016c-2.016 0-4 2.016-8 2.016-8 0-12-4-12-10.016 0-4 2.016-8 10.016-10.016 4-2.016 6.016-2.016 6.016-6.016 0-2.016-2.016-6.016-6.016-6.016s-8 2.016-10.016 4v-6.016c2.016-2.016 6.016-2.016 10.016-2.016 8 0 12 4 12 10.016s-4 8-10.016 10.016zM832 428c4 0 8-2.016 10.016-2.016l2.016 4c-2.016 2.016-6.016 2.016-12 2.016-14.016 0-24-10.016-24-24 0-16 10.016-24 22.016-24 6.016 0 12 2.016 14.016 2.016l-2.016 4c-2.016 0-6.016-2.016-10.016-2.016-10.016 0-18.016 8-18.016 20s8 20 18.016 20zM880 401.984c0-12-8-18.016-16-18.016-10.016 0-16 6.016-16 18.016 0 10.016 8 18.016 16 18.016 10.016 0 16-8 16-18.016zM874.016 401.984c0 6.016-2.016 14.016-10.016 14.016s-10.016-8-10.016-14.016c0-8 4-14.016 10.016-14.016s10.016 6.016 10.016 14.016zM910.016 397.984c0 0 0-2.016 0-2.016 0-4-4-6.016-8-6.016-6.016 0-8 4-8 10.016v20h-6.016v-20c0-12 6.016-16 12-16s10.016 4 12 6.016v-4h6.016c-2.016 2.016-2.016 4-2.016 8h2.016v26.016h-8zM944 420c-6.016 0-10.016-4-12-6.016v4h-6.016c2.016-2.016 2.016-4 2.016-8v-26.016h6.016v22.016c0 0 0 0 0 2.016 0 4 4 6.016 8 6.016 6.016 0 8-4 8-10.016v-20h6.016v22.016c0 10.016-8 14.016-12 14.016zM982.016 416c4 0 6.016-2.016 6.016-2.016l2.016 4c-2.016 0-4 2.016-8 2.016-12 0-18.016-8-18.016-18.016s6.016-18.016 16-18.016c6.016 0 8 2.016 10.016 2.016l-2.016 6.016c0-2.016-4-2.016-6.016-2.016-8 0-12 4-12 12s4 14.016 12 14.016zM998.016 384h6.016v34.016h-6.016zM1000 433.984c-2.016 0-4-2.016-4-4 0-4 2.016-4 4-4s4 0 4 4c0 2.016-2.016 4-4 4zM1014.016 384h6.016v50.016h-6.016zM128 480h-6.016v-32h6.016c6.016 0 14.016 2.016 18.016 4s6.016 6.016 6.016 12c0 12-8 16-24 16zM382.016 601.984l88-194.016-74.016-24v124h-48v-124h46.016l-286.016-90.016-106.016 288zM196 465.984c0 14.016-6.016 24-16 30.016-12 8-28 12-50.016 12h-54.016v-124h46.016v36h8c10.016 0 18.016 2.016 26.016 4 10.016 2.016 16 4 22.016 8s10.016 8 14.016 14.016c2.016 6.016 4 12 4 20zM328 417.984c-6.016-2.016-12-4-16-4-6.016-2.016-12-2.016-18.016-2.016-4 0-10.016 0-14.016 2.016-6.016 2.016-10.016 4-14.016 6.016s-6.016 6.016-8 10.016c-2.016 4-4 10.016-4 16 0 10.016 4 18.016 10.016 24 8 6.016 16 10.016 26.016 10.016 8 0 14.016-2.016 20-4 6.016 0 10.016-4 16-6.016v34.016c-6.016 2.016-6.016 2.016-14.016 4-8 0-16 0-26.016 0-12 0-22.016 0-32-4-10.016-2.016-18.016-8-26.016-12-8-6.016-12-14.016-16-20-4-10.016-6.016-18.016-6.016-28 0-8 2.016-18.016 6.016-26.016 2.016-6.016 8-14.016 16-20 6.016-4 16-8 26.016-12 10.016-2.016 22.016-4 34.016-4 10.016 0 18.016 0 26.016 2.016 6.016 2.016 8 2.016 14.016 4v30.016zM392 565.984c-6.016 4-12 6.016-20 6.016s-16-2.016-20-6.016c-6.016-6.016-8-12-8-20s2.016-14.016 8-20c4-4 12-6.016 20-6.016s14.016 2.016 20 6.016c6.016 6.016 8 12 8 20s-2.016 16-8 20zM1012 489.984c2.016-2.016 2.016-4 2.016-4h-4c-2.016 0-2.016 2.016-2.016 2.016 0 2.016 0 2.016-2.016 2.016h-2.016v-4h-2.016v12c0 0 2.016 0 4 0 4 0 6.016 0 6.016 0s2.016-2.016 2.016-4c0 0-2.016-2.016-4-2.016 2.016 0 2.016-2.016 2.016-2.016zM1010.016 493.984c0 0-2.016 2.016-4 2.016 0 0 0 0 0 0v-4c2.016 0 4 0 4 2.016zM1006.016 477.984c-8 0-14.016 6.016-14.016 14.016s6.016 14.016 14.016 14.016c10.016 0 16-6.016 16-14.016s-6.016-14.016-16-14.016zM1016 492c0 6.016-4 10.016-10.016 10.016-4 0-8-4-8-10.016s4-10.016 8-10.016c6.016 0 10.016 4 10.016 10.016z" />
<glyph unicode="&#xe906;" glyph-name="secure-ssl" d="M1024 413.984v68h-40c-2.016 18.016-4 36-6.016 54.016l38.016 12-18.016 66.016-38.016-12c-6.016 18.016-14.016 36-22.016 52l34.016 20-34.016 60-34.016-20c-10.016 16-20 30.016-32 44l26.016 28-48 48-26.016-28c-14.016 12-30.016 24-46.016 36l20 32-60 34.016-18.016-32c-16 8-34.016 16-52 22.016l10.016 36-66.016 18.016-10.016-36c-18.016 4-36 6.016-56 8v36h-68v-36c-18.016-2.016-38.016-4-56-6.016l-10.016 34.016-64-18.016 8-34.016c-18.016-6.016-36-12-52-22.016l-18.016 30.016-60-34.016 18.016-28c-16-12-32-22.016-46.016-36l-24 24-48-48 24-24c-12-14.016-24-28-36-44l-28 16-34.016-60 28-16c-8-16-16-34.016-22.016-52l-32 8-18.016-66.016 32-8c-4-18.016-6.016-38.016-8-58.016h-32v-68h32c2.016-20 4-38.016 8-56l-32-10.016 18.016-66.016 32 10.016c6.016-18.016 14.016-36 22.016-54.016l-28-16 34.016-60 28 18.016c10.016-16 22.016-32 36-46.016l-24-24 48-48 24 24c14.016-12 30.016-24 44-34.016l-16-30.016 60-34.016 16 30.016c18.016-8 34.016-16 54.016-22.016l-10.016-34.016 66.016-18.016 10.016 34.016c18.016-2.016 36-4 56-6.016v-36h68v36c18.016 2.016 38.016 4 56 8l10.016-36 66.016 18.016-10.016 36c18.016 6.016 34.016 14.016 52 22.016l18.016-32 60 34.016-20 32c16 10.016 30.016 22.016 44 34.016l28-26.016 48 48-28 28c12 14.016 24 28 34.016 44l34.016-20 34.016 60-34.016 18.016c8 18.016 16 34.016 22.016 52l38.016-10.016 18.016 66.016-40 10.016c4 18.016 6.016 36 8 56h40zM370.016 324c-16-14.016-40-20-72-20-16 0-30.016 0-42.016 2.016-10.016 4-20 8-28 14.016s-14.016 14.016-18.016 24c-6.016 10.016-8 22.016-8 36v10.016h72v-6.016c0-12 2.016-20 6.016-26.016 4-4 10.016-6.016 18.016-6.016s12 2.016 16 8c4 4 6.016 10.016 6.016 18.016 0 10.016-2.016 16-8 22.016s-12 10.016-20 14.016c-10.016 4-18.016 8-28 12s-20 8-28 14.016c-8 8-16 16-22.016 26.016-4 10.016-8 24-8 40 0 28 8 50.016 24 64 14.016 16 38.016 24 68 24 32 0 56-8 70.016-22.016s20-36 20-66.016h-68v8c0 8-2.016 14.016-4 20-4 6.016-10.016 10.016-16 10.016-8 0-14.016-4-18.016-8-4-6.016-4-10.016-4-18.016s2.016-16 8-20c6.016-6.016 14.016-10.016 22.016-14.016s18.016-8 28-12c10.016-4 20-10.016 30.016-16 8-8 16-16 22.016-26.016 6.016-12 8-24 8-42.016 0-30.016-8-52-26.016-64zM602.016 324c-18.016-14.016-42.016-20-74.016-20-16 0-30.016 0-40 2.016-12 4-22.016 8-30.016 14.016s-14.016 14.016-18.016 24c-4 10.016-6.016 22.016-6.016 36v10.016h70.016v-6.016c0-12 2.016-20 6.016-26.016 4-4 10.016-6.016 18.016-6.016s14.016 2.016 18.016 8c4 4 6.016 10.016 6.016 18.016 0 10.016-4 16-10.016 22.016-4 6.016-12 10.016-20 14.016s-18.016 8-28 12c-10.016 4-20 8-28 14.016-8 8-16 16-20 26.016-6.016 10.016-10.016 24-10.016 40 0 28 8 50.016 24 64 14.016 16 38.016 24 68 24 32 0 56-8 70.016-22.016s22.016-36 22.016-66.016h-70.016v8c0 8 0 14.016-4 20s-8 10.016-16 10.016c-8 0-14.016-4-18.016-8-2.016-6.016-4-10.016-4-18.016s2.016-16 8-20c6.016-6.016 14.016-10.016 22.016-14.016 10.016-4 18.016-8 28-12 12-4 20-10.016 30.016-16 8-8 16-16 22.016-26.016 6.016-12 8-24 8-42.016 0-30.016-8-52-24-64zM834.016 308h-162.016v280h74.016v-222.016h88z" />
<glyph unicode="&#xe907;" d="M1024 448c0-24.064-29.952-45.824-33.28-68.864-3.328-23.808 19.2-52.992 12.8-75.52-6.656-22.784-41.728-35.328-51.456-56.576-9.984-21.76 3.584-56.064-9.216-76.032s-49.92-22.016-65.28-39.68c-15.616-17.92-12.288-54.784-30.208-70.4s-53.76-7.168-73.728-19.968c-19.968-12.8-27.136-49.152-48.64-58.88s-53.504 8.448-76.544 1.792c-22.528-6.656-39.68-39.424-63.488-42.752-23.040-3.328-48.896 23.296-72.96 23.296s-49.664-26.624-72.96-23.296c-23.808 3.328-40.96 36.096-63.488 42.752-22.784 6.656-55.040-11.52-76.544-1.792-21.76 9.984-28.928 46.336-48.64 58.88-19.968 12.8-56.064 4.352-73.728 19.968-17.92 15.616-14.592 52.48-30.208 70.4s-52.48 19.968-65.28 39.936c-12.8 19.968 0.768 54.272-9.216 76.032-9.728 21.504-44.8 33.792-51.456 56.576-6.656 22.528 16.128 51.712 12.8 75.52-3.328 23.040-33.28 44.8-33.28 68.864s29.952 45.824 33.28 68.864c3.328 23.808-19.2 52.992-12.8 75.52 6.656 23.040 41.728 35.328 51.456 56.576 9.984 21.76-3.584 56.064 9.216 76.032s49.92 22.016 65.28 39.936c15.616 17.92 12.288 54.784 30.208 70.4s53.76 7.168 73.728 19.968c19.968 12.8 27.136 49.152 48.64 58.88s53.504-8.448 76.544-1.792c22.528 6.656 39.68 39.424 63.488 42.752 23.040 3.328 48.896-23.296 72.96-23.296s49.664 26.624 72.96 23.296c23.808-3.328 40.96-36.096 63.488-42.752 22.784-6.656 55.040 11.52 76.544 1.792 21.76-9.984 28.928-46.080 48.64-58.88 19.968-12.8 56.064-4.352 73.984-19.968s14.592-52.48 30.208-70.4c15.616-17.92 52.48-19.968 65.28-39.936s-0.768-54.272 9.216-76.032c9.728-21.504 44.8-33.792 51.456-56.576 6.656-22.528-16.128-51.712-12.8-75.52 3.072-23.296 33.024-45.056 33.024-69.12z" />
<glyph unicode="&#xe908;" d="M264.704 532.992h-81.92v44.032h217.088v-44.032h-82.688v-243.712h-52.48v243.712z" />
<glyph unicode="&#xe909;" d="M438.016 577.024h52.48v-243.712h118.272v-44.032h-170.752v287.744z" />
<glyph unicode="&#xe90a;" d="M655.104 346.624c17.152-9.728 42.752-18.432 69.632-18.432 33.792 0 52.48 15.872 52.48 39.168 0 21.76-14.592 34.56-51.2 47.872-47.36 17.152-77.568 42.24-77.568 83.712 0 46.848 39.168 82.688 101.632 82.688 31.232 0 54.272-6.912 69.12-14.592l-12.8-42.24c-10.24 5.632-30.208 13.568-57.088 13.568-33.28 0-47.872-17.92-47.872-34.56 0-22.272 16.64-32.512 55.040-47.36 49.92-18.688 74.24-44.032 74.24-85.248 0-46.080-35.072-86.272-109.312-86.272-30.208 0-61.952 8.448-77.568 17.92l11.264 43.776z" />
<glyph unicode="&#xe90b;" d="M810.61 49.892c0-62.901-50.991-113.892-113.892-113.892s-113.892 50.991-113.892 113.892c0 62.901 50.991 113.892 113.892 113.892s113.892-50.991 113.892-113.892z" />
<glyph unicode="&#xe90c;" d="M550.684 960h-408.462v-990.151h210.432v383.659h198.030c111.388 0 309.419 94.037 309.419 304.469 0 222.834-198.030 302.023-309.419 302.023zM488.789 531.74h-136.135v247.58h136.135c0 0 148.537 4.949 148.537-123.79s-148.537-123.79-148.537-123.79z" />
<glyph unicode="&#xe90d;" glyph-name="info" d="M554.667 571.733h-85.333v81.067h85.333v-81.067zM554.667 243.2h-85.333v247.467h85.333v-247.467zM512 857.6c-234.667 0-426.667-183.467-426.667-409.6s192-409.6 426.667-409.6 426.667 183.467 426.667 409.6-192 409.6-426.667 409.6z" />
<glyph unicode="&#xe90e;" glyph-name="bell" d="M806.4 264.533v247.467c0 136.533-93.867 256-226.133 285.867v29.867c0 38.4-29.867 68.267-68.267 68.267s-68.267-29.867-68.267-68.267v-29.867c-128-29.867-226.133-145.067-226.133-285.867v-247.467l-89.6-89.6v-46.933h768v46.933l-89.6 89.6zM426.667 85.333c0-46.933 38.4-85.333 85.333-85.333s85.333 38.4 85.333 85.333h-170.667z" />
<glyph unicode="&#xe90f;" glyph-name="calendar" d="M597.333 362.667v-128h128v128h-128zM384 362.667v-128h128v128h-128zM384 576v-128h128v128h-128zM170.667 362.667v-128h128v128h-128zM170.667 576v-128h128v128h-128zM938.667 661.333h-853.333v-469.333c0-25.6 21.333-42.667 42.667-42.667h768c21.333 0 42.667 17.067 42.667 42.667v469.333zM1024 682.667v-490.667c0-72.533-55.467-128-128-128h-768c-72.533 0-128 59.733-128 128v640h1024v-149.333z" />
<glyph unicode="&#xe910;" glyph-name="search" d="M418.133 349.867c-106.667 0-192 85.333-192 192s85.333 192 192 192 192-85.333 192-192-89.6-192-192-192zM674.133 349.867h-34.133l-12.8 12.8c42.667 46.933 68.267 110.933 68.267 179.2 0 153.6-123.733 277.333-277.333 277.333s-277.333-123.733-277.333-277.333 123.733-277.333 277.333-277.333c68.267 0 132.267 25.6 179.2 68.267l12.8-12.8v-34.133l213.333-213.333 64 64-213.333 213.333z" />
<glyph unicode="&#xe911;" glyph-name="cog" d="M512 328.533c-68.267 0-123.733 55.467-123.733 119.467s55.467 119.467 123.733 119.467 123.733-55.467 123.733-119.467-55.467-119.467-123.733-119.467zM772.267 413.867c0 12.8 4.267 21.333 4.267 34.133s0 21.333-4.267 34.133l72.533 55.467c8.533 4.267 8.533 12.8 4.267 21.333l-68.267 119.467c-4.267 8.533-12.8 8.533-21.333 8.533l-85.333-34.133c-17.067 12.8-38.4 25.6-59.733 34.133l-17.067 89.6c0 8.533-4.267 12.8-17.067 12.8h-140.8c-4.267 0-12.8-4.267-12.8-12.8l-17.067-93.867c-21.333-8.533-42.667-21.333-59.733-34.133l-85.333 34.133c-8.533 4.267-17.067 4.267-21.333-4.267l-68.267-119.467c-4.267-8.533-4.267-17.067 4.267-21.333l72.533-55.467c0-12.8-4.267-21.333-4.267-34.133s0-21.333 4.267-34.133l-72.533-55.467c-8.533-4.267-8.533-12.8-4.267-21.333l68.267-119.467c4.267-8.533 12.8-8.533 21.333-8.533l85.333 34.133c17.067-12.8 38.4-25.6 59.733-34.133l12.8-89.6c0-8.533 8.533-12.8 17.067-12.8h140.8c8.533 0 17.067 4.267 17.067 12.8l12.8 89.6c21.333 8.533 42.667 21.333 59.733 34.133l85.333-34.133c8.533-4.267 17.067 0 21.333 8.533l68.267 119.467c4.267 8.533 4.267 17.067-4.267 21.333l-68.267 55.467z" />
<glyph unicode="&#xe912;" glyph-name="settings-general" d="M576 746.667h-128c-25.6 0-42.667-17.067-42.667-42.667v-512c0-21.333 17.067-42.667 42.667-42.667h128c25.6 0 42.667 21.333 42.667 42.667v512c0 25.6-17.067 42.667-42.667 42.667zM874.667 746.667h-128c-21.333 0-42.667-17.067-42.667-42.667v-512c0-21.333 21.333-42.667 42.667-42.667h128c21.333 0 42.667 21.333 42.667 42.667v512c0 25.6-21.333 42.667-42.667 42.667zM277.333 746.667h-128c-21.333 0-42.667-17.067-42.667-42.667v-512c0-21.333 21.333-42.667 42.667-42.667h128c25.6 0 42.667 21.333 42.667 42.667v512c0 25.6-17.067 42.667-42.667 42.667z" />
<glyph unicode="&#xe913;" glyph-name="settings-timer" d="M533.333 618.667v-179.2l149.333-89.6-29.867-51.2-183.467 106.667v213.333h64zM896 529.067h-290.133l119.467 119.467c-115.2 115.2-302.933 119.467-422.4 4.267-115.2-115.2-115.2-302.933 0-418.133s302.933-115.2 422.4 0c59.733 55.467 85.333 123.733 85.333 209.067h85.333c0-85.333-38.4-192-110.933-268.8-149.333-149.333-392.533-149.333-541.867 0s-149.333 388.267 0 537.6 388.267 149.333 537.6 0l115.2 119.467v-302.933z" />
<glyph unicode="&#xe914;" glyph-name="settings-payways" d="M661.333 725.333v-256h213.333v256h-213.333zM405.333 469.333h213.333v256h-213.333v-256zM661.333 170.667h213.333v256h-213.333v-256zM405.333 170.667h213.333v256h-213.333v-256zM149.333 170.667h213.333v256h-213.333v-256zM149.333 469.333h213.333v256h-213.333v-256z" />
<glyph unicode="&#xe915;" glyph-name="settings-security" d="M512 448h298.667c-21.333-174.933-140.8-332.8-298.667-379.733v379.733h-298.667v243.2l298.667 132.267v-375.467zM512 917.333l-384-170.667v-256c0-234.667 162.133-456.533 384-512 221.867 55.467 384 277.333 384 512v256l-384 170.667z" />
<glyph unicode="&#xe916;" glyph-name="settings-notifications" d="M512 29.867c4.267 0 12.8 0 17.067 0 29.867 4.267 51.2 25.6 59.733 51.2 4.267 8.533 4.267 21.333 4.267 34.133h-170.667c4.267-46.933 42.667-85.333 89.6-85.333zM768 499.2c0 132.267-68.267 238.933-192 268.8v29.867c0 34.133-29.867 64-64 64s-64-29.867-64-64v-29.867c-123.733-25.6-192-136.533-192-268.8v-213.333l-85.333-85.333v-42.667h682.667v42.667l-85.333 85.333v213.333zM853.333 524.8h85.333c-8.533 136.533-72.533 256-174.933 337.067l-59.733-59.733c85.333-68.267 140.8-166.4 149.333-277.333zM324.267 797.867l-64 59.733c-102.4-76.8-170.667-200.533-174.933-337.067h85.333c8.533 115.2 64 213.333 153.6 277.333z" />
<glyph unicode="&#xe917;" glyph-name="settings-integration" d="M469.333 277.333l170.667 170.667-170.667 170.667v-128h-426.667v-85.333h426.667v-128zM896 832h-768c-46.933 0-85.333-38.4-85.333-85.333v-170.667h85.333v170.667h768v-597.333h-768v170.667h-85.333v-170.667c0-46.933 38.4-85.333 85.333-85.333h768c46.933 0 85.333 38.4 85.333 85.333v597.333c0 46.933-38.4 85.333-85.333 85.333z" />
<glyph unicode="&#xe918;" glyph-name="arrow-left" horiz-adv-x="1536" d="M251.12 391.111l357.996-357.996-80.453-80.453-495.331 495.331 495.174 495.338 80.466-80.44-357.884-358.002h1284.912v-113.778h-1284.88z" />
<glyph unicode="&#xe919;" glyph-name="arrow-right" horiz-adv-x="1536" d="M1284.88 391.111l-357.996-357.996 80.453-80.453 495.331 495.331-495.174 495.338-80.466-80.44 357.884-358.002h-1284.912v-113.778h1284.88z" />
<glyph unicode="&#xe91a;" glyph-name="upload" d="M0 448c0 282.784 229.184 512 512 512 282.784 0 512-229.184 512-512 0-282.784-229.184-512-512-512-282.784 0-512 229.184-512 512zM416 348h192v176h128l-224 205.344-224-205.344h128v-176zM288 289.344v-58.688h448v58.688h-448z" />
<glyph unicode="&#xe91b;" horiz-adv-x="989" d="M621.561 62.247h-584.157v523.692h822.945v-282.091c-11.914 2.467-25.607 3.879-39.629 3.879-0.042 0-0.083 0-0.125 0-11.952 0-23.672-1.031-35.062-3.016v206.413h-673.315v-374.062h507.609c-1.669-9.823-2.623-21.139-2.623-32.678 0-0.019 0-0.039 0-0.058 0-14.424 1.501-28.501 4.356-42.079zM629.627 174.466h-480.011l84.164 112.219h430.178l22.254-29.668c-24.925-22.011-44.297-49.732-56.13-81.148zM598.647 960l111.953-187.104v-41.072c0.042-39.915-34.788-71.077-74.696-71.077s-74.808 34.907-74.808 74.815v41.072l-35.125 183.366h72.683zM523.692 776.711v-41.072c0-39.88-34.9-74.892-74.815-74.892-39.908 0-74.815 34.9-74.815 74.815v41.072l39.164 183.366h71.259l39.207-183.289zM897.753 733.016c0-39.908-34.9-72.269-74.815-72.269-39.908 0-74.808 34.9-74.808 74.815v41.072l-107.997 183.366h75.341l182.279-185.947v-41.030zM257.613 960l-107.983-185.947v-41.072c0-39.873-34.9-72.234-74.808-72.234-39.922 0-74.822 32.361-74.822 72.269v41.037l182.321 185.947h75.292zM371.782 960l-35.125-185.947v-41.072c0-39.873-34.9-72.234-74.815-72.234-39.908 0-74.808 32.361-74.808 72.269v41.037l112.065 185.947h72.683z" />
<glyph unicode="&#xe91c;" horiz-adv-x="989" d="M988.932 104.329c0-92.965-75.363-168.329-168.329-168.329s-168.329 75.363-168.329 168.329c0 92.965 75.363 168.329 168.329 168.329s168.329-75.363 168.329-168.329z" />
<glyph unicode="&#xe91d;" horiz-adv-x="989" d="M872.658 92.384c0-21.553-4.839-38.176-14.518-49.867-9.679-11.685-23.328-17.534-40.932-17.534-17.759 0-31.492 5.884-41.205 17.646-9.721 11.762-14.581 28.349-14.581 49.755v29.149c0 21.553 4.839 38.176 14.518 49.867 9.686 11.685 23.37 17.534 41.044 17.534 17.682 0 31.379-5.884 41.1-17.646 9.714-11.762 14.574-28.384 14.574-49.867v-29.037zM835.724 126.247c0 11.467-1.494 20.038-4.489 25.698s-7.75 8.494-14.252 8.494c-6.354 0-10.976-2.63-13.859-7.89-2.89-5.26-4.44-13.221-4.657-23.889v-40.771c0-11.909 1.494-20.62 4.489-26.133 2.995-5.52 7.75-8.276 14.252-8.276 6.277 0 10.92 2.686 13.915 8.052 2.995 5.372 4.531 13.796 4.601 25.263v39.452z" />
<glyph unicode="&#xe91e;" horiz-adv-x="1062" d="M240.941 433.242v-211.125c0-33.25 26.985-60.235 60.235-60.235h366.088c4.869 22.729 12.608 42.863 22.971 61.327l-373.999-1.092c-8.317 0-15.059 6.742-15.059 15.059v195.765h602.353v-99.034c21.112-2.176 41.336-7.349 60.235-15.104v264.727c0 33.25-26.985 60.235-60.235 60.235h-135.529v-60.235h120.471c8.317 0 15.059-6.742 15.059-15.059v-45.176l-135.529-0.045c0-49.875-40.486-90.308-90.315-90.308h-429.252c-2.522 0-5.022 0.105-7.492 0.301zM632.471 342.588h-271.059v30.118h271.059v-30.118zM542.118 282.353h-180.706v30.118h180.706v-30.118zM843.294 342.588h-90.353v30.118h90.353v-30.118z" />
<glyph unicode="&#xe91f;" horiz-adv-x="1062" d="M662.588 960h-602.353c-33.25 0-60.235-26.985-60.235-60.235v-361.412c0-33.25 26.985-60.235 60.235-60.235h602.353c33.25 0 60.235 26.985 60.235 60.235v361.412c0 33.25-26.985 60.235-60.235 60.235zM90.353 785.92c0 0.002 0 0.005 0 0.008 0 12.97 10.514 23.484 23.484 23.484 0.003 0 0.005 0 0.008 0h12.89v-33.882h-36.382v10.391zM90.353 762.91h36.382v-29.154h-36.382v29.154zM90.353 721.107h36.382v-32.166h-12.89c-0.002 0-0.005 0-0.008 0-12.97 0-23.484 10.514-23.484 23.484 0 0.003 0 0.005 0 0.008v8.674zM180.706 568.471h-90.353v30.118h90.353v-30.118zM210.824 712.433c0-0.002 0-0.005 0-0.008 0-12.97-10.514-23.484-23.484-23.484-0.003 0-0.005 0-0.008 0h-12.92v32.166h36.412v-8.674zM210.824 733.756h-36.412v29.154h36.412v-29.154zM210.824 775.529h-49.062v-86.588h-22.377v120.471h47.947c0.002 0 0.005 0 0.008 0 12.97 0 23.484-10.514 23.484-23.484 0-0.003 0-0.005 0-0.008v-10.39zM331.294 568.471h-90.353v30.118h90.353v-30.118zM361.412 764.235c0 0.003 0 0.007 0 0.010 0 41.58 33.707 75.287 75.287 75.287 14.729 0 28.47-4.23 40.074-11.54-16.281-16.334-26.122-38.863-26.122-63.692 0-0.023 0-0.046 0-0.069 0-24.813 9.848-47.311 25.811-63.936-11.293-7.128-25.034-11.357-39.763-11.357-41.58 0-75.287 33.707-75.287 75.287 0 0.004 0 0.007 0 0.011zM481.882 568.471h-90.353v30.118h90.353v-30.118zM632.471 568.471h-90.353v30.118h90.353v-30.118zM557.176 688.941c-41.562 0-75.294 33.702-75.294 75.294s33.732 75.294 75.294 75.294c41.592 0 75.294-33.702 75.294-75.294s-33.702-75.294-75.294-75.294z" />
<glyph unicode="&#xe920;" horiz-adv-x="1062" d="M1061.647 116.706c0-99.801-80.905-180.706-180.706-180.706s-180.706 80.905-180.706 180.706c0 99.801 80.905 180.706 180.706 180.706s180.706-80.905 180.706-180.706z" />
<glyph unicode="&#xe921;" horiz-adv-x="1062" d="M936.824 103.883c0-23.138-5.195-40.983-15.586-53.534-10.391-12.544-25.043-18.824-43.942-18.824-19.064 0-33.807 6.317-44.235 18.944-10.436 12.627-15.654 30.434-15.654 53.414v31.292c0 23.138 5.195 40.983 15.586 53.534 10.398 12.544 25.088 18.824 44.062 18.824 18.982 0 33.687-6.317 44.122-18.944 10.428-12.627 15.646-30.472 15.646-53.534v-31.172zM897.175 140.235c0 12.311-1.604 21.512-4.819 27.588s-8.32 9.118-15.3 9.118c-6.822 0-11.784-2.824-14.878-8.471-3.102-5.647-4.766-14.193-5-25.645v-43.768c0-12.785 1.604-22.136 4.819-28.055 3.215-5.926 8.32-8.885 15.3-8.885 6.739 0 11.723 2.884 14.938 8.644 3.215 5.768 4.864 14.81 4.939 27.121v42.353z" />
<glyph unicode="&#xe922;" glyph-name="bin" horiz-adv-x="796" d="M56.889 49.778c0-62.578 51.2-113.778 113.778-113.778h455.111c62.578 0 113.778 51.2 113.778 113.778v682.667h-682.667v-682.667zM796.444 903.111h-199.111l-56.889 56.889h-284.444l-56.889-56.889h-199.111v-113.778h796.444v113.778z" />
<glyph unicode="&#xe923;" horiz-adv-x="989" d="M621.561 62.247h-584.157v523.692h822.945v-282.091c-11.914 2.467-25.607 3.879-39.629 3.879-0.042 0-0.083 0-0.125 0-11.952 0-23.672-1.031-35.062-3.016v206.413h-673.315v-374.062h507.609c-1.669-9.823-2.623-21.139-2.623-32.678 0-0.019 0-0.039 0-0.058 0-14.424 1.501-28.501 4.356-42.079zM629.627 174.466h-480.011l84.164 112.219h430.178l22.254-29.668c-24.925-22.011-44.297-49.732-56.13-81.148zM598.647 960l111.953-187.104v-41.072c0.042-39.915-34.788-71.077-74.696-71.077s-74.808 34.907-74.808 74.815v41.072l-35.125 183.366h72.683zM523.692 776.711v-41.072c0-39.88-34.9-74.892-74.815-74.892-39.908 0-74.815 34.9-74.815 74.815v41.072l39.164 183.366h71.259l39.207-183.289zM897.753 733.016c0-39.908-34.9-72.269-74.815-72.269-39.908 0-74.808 34.9-74.808 74.815v41.072l-107.997 183.366h75.341l182.279-185.947v-41.030zM257.613 960l-107.983-185.947v-41.072c0-39.873-34.9-72.234-74.808-72.234-39.922 0-74.822 32.361-74.822 72.269v41.037l182.321 185.947h75.292zM371.782 960l-35.125-185.947v-41.072c0-39.873-34.9-72.234-74.815-72.234-39.908 0-74.808 32.361-74.808 72.269v41.037l112.065 185.947h72.683z" />
<glyph unicode="&#xe924;" horiz-adv-x="989" d="M988.932 104.329c0-92.965-75.363-168.329-168.329-168.329s-168.329 75.363-168.329 168.329c0 92.965 75.363 168.329 168.329 168.329s168.329-75.363 168.329-168.329z" />
<glyph unicode="&#xe925;" horiz-adv-x="989" d="M734.208 124.318l-23.594-25.951 89.881-81.71 131.051 138.752-25.502 24.085-107.415-113.741z" />
<glyph unicode="&#xe926;" horiz-adv-x="989" d="M621.561 62.247h-584.157v523.692h822.945v-282.091c-11.914 2.467-25.607 3.879-39.629 3.879-0.042 0-0.083 0-0.125 0-11.952 0-23.672-1.031-35.062-3.016v206.413h-673.315v-374.062h507.609c-1.669-9.823-2.623-21.139-2.623-32.678 0-0.019 0-0.039 0-0.058 0-14.424 1.501-28.501 4.356-42.079zM629.627 174.466h-480.011l84.164 112.219h430.178l22.254-29.668c-24.925-22.011-44.297-49.732-56.13-81.148zM598.647 960l111.953-187.104v-41.072c0.042-39.915-34.788-71.077-74.696-71.077s-74.808 34.907-74.808 74.815v41.072l-35.125 183.366h72.683zM523.692 776.711v-41.072c0-39.88-34.9-74.892-74.815-74.892-39.908 0-74.815 34.9-74.815 74.815v41.072l39.164 183.366h71.259l39.207-183.289zM897.753 733.016c0-39.908-34.9-72.269-74.815-72.269-39.908 0-74.808 34.9-74.808 74.815v41.072l-107.997 183.366h75.341l182.279-185.947v-41.030zM257.613 960l-107.983-185.947v-41.072c0-39.873-34.9-72.234-74.808-72.234-39.922 0-74.822 32.361-74.822 72.269v41.037l182.321 185.947h75.292zM371.782 960l-35.125-185.947v-41.072c0-39.873-34.9-72.234-74.815-72.234-39.908 0-74.808 32.361-74.808 72.269v41.037l112.065 185.947h72.683z" />
<glyph unicode="&#xe927;" horiz-adv-x="989" d="M988.932 104.329c0-92.965-75.363-168.329-168.329-168.329s-168.329 75.363-168.329 168.329c0 92.965 75.363 168.329 168.329 168.329s168.329-75.363 168.329-168.329z" />
<glyph unicode="&#xe928;" horiz-adv-x="989" d="M820.603 127.074l-61.419 61.419-22.745-22.745 61.419-61.419-61.419-61.419 22.745-22.745 61.419 61.419 61.419-61.419 22.745 22.745-61.419 61.419 61.419 61.419-22.745 22.745-61.419-61.419z" />
<glyph unicode="&#xe929;" horiz-adv-x="1060" d="M389.466 113.88c2.553 113.275 95.21 204.317 209.105 204.317h288.374c0.031 0 0.061 0 0.092 0 12.722 0 25.18-1.128 36.005-3.101v299.304l-209.761 345.6h-502.64l-210.641-345.6v-500.52h389.466zM576.901 421.556h-230.761c-0.002 0-0.005 0-0.007 0-21.236 0-38.45 17.215-38.45 38.45 0 0.005 0 0.010 0 0.015 0 0.001 0 0.004 0 0.006 0 21.236 17.215 38.45 38.45 38.45 0.003 0 0.005 0 0.008 0h230.76c21.273 0 38.458-17.235 38.458-38.458 0-0.004 0-0.009 0-0.014 0-21.236-17.215-38.45-38.45-38.45-0.003 0-0.005 0-0.008 0zM89.766 613.859l164.071 269.218h416.141l163.415-269.218h-743.626z" />
<glyph unicode="&#xe92a;" horiz-adv-x="1060" d="M598.535 282.141h288.451c95.584 0 173.070-77.486 173.070-173.070s-77.486-173.070-173.070-173.070h-288.451c-95.584 0-173.070 77.486-173.070 173.070s77.486 173.070 173.070 173.070z" />
<glyph unicode="&#xe92b;" horiz-adv-x="1060" d="M654.084 93.855h16.68v-29.292h-16.68v-34.816h-37.975v34.816h-63.43l-2.257 23.213 65.695 105.688v0.339h37.967v-99.948zM586.586 93.855h29.523v50.479l-2.365-3.822-27.15-46.657zM801.352 96.79c0-22.16-4.976-39.251-14.927-51.272-9.952-12.014-23.985-18.028-42.085-18.028-18.259 0-32.379 6.050-42.366 18.144-9.995 12.093-14.985 29.148-14.985 51.157v29.97c0 22.16 4.976 39.251 14.927 51.272 9.952 12.014 24.014 18.028 42.2 18.028 18.172 0 32.256-6.050 42.251-18.144 9.988-12.093 14.985-29.184 14.985-51.272v-29.855zM763.378 131.606c0 11.79-1.536 20.603-4.615 26.422s-7.961 8.733-14.646 8.733c-6.541 0-11.293-2.704-14.257-8.113-2.971-5.408-4.565-13.593-4.788-24.562v-41.919c0-12.245 1.536-21.201 4.615-26.869 3.086-5.675 7.968-8.509 14.653-8.509 6.461 0 11.228 2.762 14.307 8.279 3.079 5.524 4.658 14.185 4.731 25.975v40.563zM921.355 93.862h16.672v-29.299h-16.672v-34.816h-37.975v34.816h-63.438l-2.25 23.213 65.687 105.688v0.339h37.975v-99.948zM853.857 93.862h29.523v50.479l-2.365-3.836-27.158-46.642z" />
<glyph unicode="&#xe92c;" horiz-adv-x="1172" d="M833.324 466.044v112.216c-57.323 20.381-93.502 26.116-111.771 70.105v0.035c-18.291 44.138 3.475 74.095 29.414 128.713l-79.342 79.342c-54.201-25.769-84.476-47.74-128.713-29.414h-0.035c-44.067 18.27-49.823 54.724-70.105 111.771h-112.216c-20.212-56.772-26.010-93.474-70.105-111.771h-0.035c-44.138-18.333-74.025 3.404-128.713 29.414l-79.342-79.342c25.868-54.449 47.74-84.512 29.414-128.713-18.298-44.138-54.999-49.929-111.771-70.14v-112.216c56.666-20.141 93.474-26.010 111.771-70.105 18.404-44.512-3.955-75.211-29.414-128.713l79.342-79.378c54.237 25.798 84.512 47.74 128.713 29.414h0.035c44.096-18.263 49.858-54.83 70.105-111.771h112.216c20.212 56.807 26.010 93.403 70.381 111.87h0.035c43.82 18.199 73.615-3.503 128.403-29.548l79.342 79.378c-25.798 54.272-47.74 84.476-29.449 128.678 18.298 44.138 55.141 49.999 111.842 70.176zM416.662 348.545c-95.903 0-173.607 77.739-173.607 173.607s77.704 173.607 173.607 173.607c95.903 0 173.607-77.739 173.607-173.607s-77.704-173.607-173.607-173.607zM1151.273 669.608l18.213 50.049c-22.26 18.39-37.464 26.822-38.467 49.406l0.007 0.014c-0.996 22.648 13.573 32.478 34.011 52.627l-22.507 48.255c-28.354-2.684-45.423-7.578-62.174 7.782h-0.014c-16.688 15.296-13.34 32.493-13.121 61.228l-50.049 18.206c-18.22-22.034-26.765-37.464-49.406-38.467l-0.014 0.007c-22.655-1.010-32.457 13.531-52.627 34.011l-48.255-22.507c2.698-28.481 7.571-45.437-7.782-62.174-15.325-16.709-32.627-13.34-61.228-13.135l-18.213-50.049c21.998-18.178 37.464-26.765 38.467-49.406 0.982-22.832-13.976-32.895-34.011-52.627l22.5-48.269c28.375 2.698 45.437 7.571 62.174-7.782h0.014c16.702-15.304 13.34-32.549 13.121-61.228l50.049-18.213c18.227 22.055 26.758 37.429 49.54 38.467h0.021c22.493 0.989 32.252-13.517 52.464-34.025l48.262 22.521c-2.698 28.39-7.578 45.423 7.754 62.16 15.325 16.716 32.712 13.347 61.271 13.143zM945.547 684.24c-42.556 15.494-64.484 62.542-49.004 105.084 15.487 42.535 62.52 64.477 105.084 48.997 42.549-15.494 64.477-62.542 48.997-105.084-15.487-42.535-62.528-64.477-105.084-48.997zM520.828 522.152c0-57.429-46.737-104.166-104.166-104.166s-104.166 46.737-104.166 104.166 46.737 104.166 104.166 104.166 104.166-46.737 104.166-104.166z" />
<glyph unicode="&#xe92d;" horiz-adv-x="1172" d="M586.152 274.979h282.483c93.607 0 169.49-75.883 169.49-169.49s-75.883-169.49-169.49-169.49h-282.483c-93.607 0-169.49 75.883-169.49 169.49s75.883 169.49 169.49 169.49z" />
<glyph unicode="&#xe92e;" horiz-adv-x="1172" d="M542.438 104.218l10.431 87.231h99.773v-30.72h-67.655l-3.863-33.884c2.818 1.645 6.504 3.093 11.080 4.343 4.016 1.166 8.633 1.848 13.405 1.871 16.983 0 30.013-5.014 39.116-15.063 9.11-10.042 13.665-24.131 13.665-42.266 0-10.946-2.443-20.847-7.33-29.717-4.79-8.731-11.814-15.716-20.313-20.327-9.093-4.899-19.531-7.286-31.565-7.286-0.131-0.001-0.286-0.001-0.442-0.001-10.783 0-20.995 2.443-30.113 6.807-8.958 4.232-16.302 10.292-21.62 17.989s-7.931 16.398-7.853 26.087h39.625c0.388-6.25 2.387-11.215 5.982-14.887s8.319-5.508 14.188-5.508c13.284 0 19.929 9.845 19.929 29.541 0 18.213-8.128 27.316-24.385 27.316-9.223 0-16.102-2.966-20.635-8.912l-31.426 7.387zM790.606 90.504c0-23.058-5.176-40.84-15.537-53.347-10.353-12.5-24.95-18.757-43.785-18.757-18.997 0-33.686 6.285-44.081 18.877-10.395 12.585-15.593 30.325-15.593 53.227v31.186c0 23.058 5.176 40.84 15.537 53.347 10.353 12.5 24.986 18.757 43.905 18.757 18.912 0 33.566-6.292 43.961-18.877s15.593-30.367 15.593-53.347v-31.073zM751.093 126.732c0 12.267-1.596 21.433-4.802 27.493s-8.284 9.089-15.24 9.089c-6.801 0-11.744-2.818-14.83-8.446-3.093-5.628-4.753-14.145-4.986-25.558v-43.615c0-12.74 1.603-22.062 4.802-27.966 3.206-5.897 8.291-8.849 15.247-8.849 6.723 0 11.681 2.874 14.887 8.616 3.206 5.749 4.845 14.76 4.922 27.027v42.21zM922.596 90.504c0-23.058-5.184-40.84-15.537-53.347-10.36-12.5-24.95-18.757-43.785-18.757-18.997 0-33.686 6.285-44.088 18.877-10.395 12.585-15.593 30.325-15.593 53.227v31.186c0 23.058 5.176 40.84 15.537 53.347 10.353 12.5 24.993 18.757 43.905 18.757s33.573-6.292 43.968-18.877c10.395-12.585 15.593-30.367 15.593-53.347v-31.073zM883.083 126.732c0 12.267-1.603 21.433-4.802 27.493-3.213 6.059-8.291 9.089-15.247 9.089-6.801 0-11.744-2.818-14.83-8.446s-4.746-14.145-4.986-25.558v-43.615c0-12.74 1.603-22.062 4.809-27.966 3.206-5.897 8.284-8.849 15.24-8.849 6.723 0 11.688 2.874 14.894 8.616 3.199 5.749 4.845 14.76 4.922 27.027v42.21z" />
<glyph unicode="&#xe92f;" horiz-adv-x="1062" d="M240.941 433.242v-211.125c0-33.25 26.985-60.235 60.235-60.235h366.088c4.869 22.729 12.608 42.863 22.971 61.327l-373.999-1.092c-8.317 0-15.059 6.742-15.059 15.059v195.765h602.353v-99.034c21.112-2.176 41.336-7.349 60.235-15.104v264.727c0 33.25-26.985 60.235-60.235 60.235h-135.529v-60.235h120.471c8.317 0 15.059-6.742 15.059-15.059v-45.176l-135.529-0.045c0-49.875-40.486-90.308-90.315-90.308h-429.252c-2.522 0-5.022 0.105-7.492 0.301zM632.471 342.588h-271.059v30.118h271.059v-30.118zM542.118 282.353h-180.706v30.118h180.706v-30.118zM843.294 342.588h-90.353v30.118h90.353v-30.118z" />
<glyph unicode="&#xe930;" horiz-adv-x="1062" d="M662.588 960h-602.353c-33.25 0-60.235-26.985-60.235-60.235v-361.412c0-33.25 26.985-60.235 60.235-60.235h602.353c33.25 0 60.235 26.985 60.235 60.235v361.412c0 33.25-26.985 60.235-60.235 60.235zM90.353 785.92c0 0.002 0 0.005 0 0.008 0 12.97 10.514 23.484 23.484 23.484 0.003 0 0.005 0 0.008 0h12.89v-33.882h-36.382v10.391zM90.353 762.91h36.382v-29.154h-36.382v29.154zM90.353 721.107h36.382v-32.166h-12.89c-0.002 0-0.005 0-0.008 0-12.97 0-23.484 10.514-23.484 23.484 0 0.003 0 0.005 0 0.008v8.674zM180.706 568.471h-90.353v30.118h90.353v-30.118zM210.824 712.433c0-0.002 0-0.005 0-0.008 0-12.97-10.514-23.484-23.484-23.484-0.003 0-0.005 0-0.008 0h-12.92v32.166h36.412v-8.674zM210.824 733.756h-36.412v29.154h36.412v-29.154zM210.824 775.529h-49.062v-86.588h-22.377v120.471h47.947c0.002 0 0.005 0 0.008 0 12.97 0 23.484-10.514 23.484-23.484 0-0.003 0-0.005 0-0.008v-10.39zM331.294 568.471h-90.353v30.118h90.353v-30.118zM361.412 764.235c0 0.003 0 0.007 0 0.010 0 41.58 33.707 75.287 75.287 75.287 14.729 0 28.47-4.23 40.074-11.54-16.281-16.334-26.122-38.863-26.122-63.692 0-0.023 0-0.046 0-0.069 0-24.813 9.848-47.311 25.811-63.936-11.293-7.128-25.034-11.357-39.763-11.357-41.58 0-75.287 33.707-75.287 75.287 0 0.004 0 0.007 0 0.011zM481.882 568.471h-90.353v30.118h90.353v-30.118zM632.471 568.471h-90.353v30.118h90.353v-30.118zM557.176 688.941c-41.562 0-75.294 33.702-75.294 75.294s33.732 75.294 75.294 75.294c41.592 0 75.294-33.702 75.294-75.294s-33.702-75.294-75.294-75.294z" />
<glyph unicode="&#xe931;" horiz-adv-x="1062" d="M1061.647 116.706c0-99.801-80.905-180.706-180.706-180.706s-180.706 80.905-180.706 180.706c0 99.801 80.905 180.706 180.706 180.706s180.706-80.905 180.706-180.706z" />
<glyph unicode="&#xe932;" horiz-adv-x="1062" d="M803.9 138.616l-26.624-26.616 77.854-77.854 129.476 129.483-26.624 26.624-102.852-102.859z" />
<glyph unicode="&#xe933;" glyph-name="lock" horiz-adv-x="780" d="M682.667 618.667h-48.762v97.524c0 134.583-109.227 243.81-243.81 243.81s-243.81-109.227-243.81-243.81v-97.524h-48.762c-53.638 0-97.524-43.886-97.524-97.524v-487.619c0-53.638 43.886-97.524 97.524-97.524h585.143c53.638 0 97.524 43.886 97.524 97.524v487.619c0 53.638-43.886 97.524-97.524 97.524zM390.095 179.81c-53.638 0-97.524 43.886-97.524 97.524s43.886 97.524 97.524 97.524 97.524-43.886 97.524-97.524-43.886-97.524-97.524-97.524zM541.257 618.667h-302.324v97.524c0 83.383 67.779 151.162 151.162 151.162s151.162-67.779 151.162-151.162v-97.524z" />
<glyph unicode="&#xe934;" horiz-adv-x="1621" d="M42.667 874.453v-852.907c0-23.723 19.157-42.88 42.795-42.88h1450.411c23.467 0 42.795 19.285 42.795 42.88v852.907c0 23.723-19.157 42.88-42.795 42.88h-1450.411c-23.467 0-42.795-19.285-42.795-42.88zM0 874.453c0 47.232 38.485 85.547 85.461 85.547h1450.411c47.189 0 85.461-38.272 85.461-85.547v-852.907c-0.048-47.197-38.271-85.45-85.452-85.547h-1450.42c-47.204 0.024-85.461 38.296-85.461 85.504 0 0.015 0 0.030 0 0.045v852.904z" />
<glyph unicode="&#xe935;" horiz-adv-x="1621" d="M562.176 233.387l72.533 425.557h116.011l-72.619-425.6zM1097.216 649.813c-30.3 11.302-65.31 17.842-101.848 17.842-0.749 0-1.498-0.003-2.246-0.008-114.488 0.001-195.256-57.727-195.939-140.458-0.64-61.141 57.643-95.275 101.675-115.627 45.141-20.864 60.331-34.133 60.117-52.779-0.299-28.544-36.053-41.557-69.419-41.557-46.421 0-71.083 6.443-109.227 22.315l-14.933 6.784-16.256-95.275c27.093-11.861 77.227-22.187 129.237-22.699 121.941 0 201.088 57.045 201.984 145.408 0.427 48.384-30.464 85.248-97.408 115.627-40.533 19.669-65.365 32.853-65.109 52.779 0 17.664 21.035 36.608 66.432 36.608 37.973 0.555 65.408-7.68 86.827-16.341l10.411-4.907 15.701 92.245zM1395.755 658.944h-89.643c-27.776 0-48.555-7.552-60.757-35.285l-172.288-390.016h121.813s19.925 52.437 24.448 63.957l148.565-0.213c3.456-14.891 14.080-63.744 14.080-63.744h107.691l-93.909 425.301zM1253.504 384.171c9.6 24.491 46.251 118.955 46.251 118.955-0.683-1.152 9.515 24.619 15.36 40.619l7.851-36.693 26.88-122.88h-96.341zM463.701 658.944l-113.579-290.219-12.117 59.008c-21.12 67.968-87.040 141.653-160.64 178.517l103.851-372.224 122.709 0.171 182.613 424.747h-122.88z" />
<glyph unicode="&#xe936;" horiz-adv-x="1621" d="M244.139 658.944h-187.051l-1.493-8.832c145.536-35.243 241.835-120.363 281.813-222.677l-40.704 195.584c-6.997 26.965-27.349 34.987-52.565 35.925z" />
<glyph unicode="&#xe937;" horiz-adv-x="1621" d="M42.667 874.453v-852.907c0-23.723 19.157-42.88 42.795-42.88h1450.411c23.467 0 42.795 19.285 42.795 42.88v852.907c0 23.723-19.157 42.88-42.795 42.88h-1450.411c-23.467 0-42.795-19.285-42.795-42.88zM0 874.453c0 47.232 38.485 85.547 85.461 85.547h1450.411c47.189 0 85.461-38.272 85.461-85.547v-852.907c-0.048-47.197-38.271-85.45-85.452-85.547h-1450.42c-47.204 0.024-85.461 38.296-85.461 85.504 0 0.015 0 0.030 0 0.045v852.904z" />
<glyph unicode="&#xe938;" horiz-adv-x="1621" d="M943.573 448c0.014-1.213 0.021-2.646 0.021-4.081 0-215.541-174.731-390.272-390.272-390.272s-390.272 174.731-390.272 390.272c0 1.435 0.008 2.868 0.023 4.299 2.305 213.561 176.142 385.973 390.249 385.973s387.944-172.412 390.249-385.973z" />
<glyph unicode="&#xe939;" horiz-adv-x="1621" d="M1077.248 838.272c-0.153 0-0.333 0-0.514 0-100.822 0-192.682-38.374-261.77-101.314-13.77-12.521-26.996-26.345-39.114-41.023h78.848c10.795-13.099 20.736-26.88 29.781-41.344h-138.368c-8.277-13.227-15.787-27.051-22.485-41.301h183.296c6.272-13.397 11.776-27.179 16.555-41.344h-216.363c-3.828-10.783-7.737-24.615-10.872-38.739l238.541-2.563c5.597-24.84 8.804-53.367 8.804-82.644 0-44.355-7.362-86.991-20.93-126.752l-215.544 2.761c4.693-14.123 10.24-27.947 16.512-41.301h183.296c-7.699-16.371-15.192-29.921-23.434-42.95l-137.377 1.606c9.045-14.421 18.987-28.203 29.739-41.301h78.848c-12.117-14.72-25.301-28.544-39.424-41.344 68.978-62.668 161.018-101.035 262.019-101.035 215.541 0 390.272 174.731 390.272 390.272s-174.731 390.272-390.272 390.272c-0.016 0-0.032 0-0.048 0z" />
<glyph unicode="&#xe93a;" horiz-adv-x="1621" d="M1415.509 230.443c0 6.951 5.635 12.587 12.587 12.587s12.587-5.635 12.587-12.587c0-6.951-5.635-12.587-12.587-12.587s-12.587 5.635-12.587 12.587zM1428.096 220.885c5.302 0 9.6 4.298 9.6 9.6s-4.298 9.6-9.6 9.6c-5.302 0-9.6-4.298-9.6-9.6s4.298-9.6 9.6-9.6zM1426.389 224.939h-2.56v11.093h4.693c0.939 0 1.963 0 2.816-0.597s1.408-1.664 1.408-2.773c0-1.237-0.768-2.389-1.92-2.859l2.005-4.864h-2.859l-1.707 4.352h-1.877v-4.352zM1426.389 229.76h1.707c0.597 0 1.28-0.043 1.835 0.341 0.469 0.427 0.725 1.195 0.725 1.92 0 0.64-0.299 1.365-0.725 1.707-0.512 0.427-1.365 0.299-1.92 0.299h-1.621v-4.267zM462.165 405.291c-2.83 0.405-6.101 0.637-9.426 0.64-24.024 0-36.184-8.235-36.184-24.491 0-10.027 5.973-16.427 15.189-16.427 17.28 0 29.696 16.427 30.421 40.277zM493.013 333.525h-35.115l0.811 16.683c-10.709-13.184-25.003-19.456-44.416-19.456-22.955 0-38.699 17.92-38.699 43.989 0 39.168 27.392 62.037 74.368 62.037 4.821 0 10.965-0.427 17.28-1.237 0.971 3.11 1.572 6.694 1.663 10.405 0.001 10.715-7.38 14.683-27.178 14.683-0.088 0-0.192 0-0.296 0-15.938 0-31.256-2.655-45.535-7.548l6.833 36.561c21.12 6.144 35.072 8.491 50.731 8.491 36.395 0 55.637-16.341 55.595-47.232 0.085-8.235-1.28-18.475-3.413-31.872-3.669-23.339-11.563-73.301-12.629-85.504zM357.845 333.525h-42.368l24.32 152.192-54.229-152.192h-28.885l-3.541 151.296-25.515-151.296h-39.68l33.152 197.973h60.928l3.669-110.805 37.163 110.805h67.755l-32.768-197.973zM1129.6 405.291c-2.831 0.406-6.102 0.638-9.427 0.64-24.023 0-36.183-8.235-36.183-24.491 0-10.027 5.973-16.427 15.189-16.427 17.28 0 29.696 16.427 30.421 40.277zM1160.448 333.525h-35.115l0.811 16.683c-10.709-13.184-25.003-19.456-44.373-19.456-23.040 0-38.741 17.92-38.741 43.989 0 39.168 27.392 62.037 74.411 62.037 4.779 0 10.923-0.427 17.237-1.237 0.971 3.11 1.572 6.694 1.663 10.405 0.001 10.715-7.38 14.683-27.178 14.683-0.076 0-0.165 0-0.254 0-15.952 0-31.284-2.655-45.578-7.548l6.878 36.561c21.12 6.144 34.987 8.491 50.688 8.491 36.395 0 55.637-16.341 55.637-47.232 0.043-8.235-1.28-18.475-3.413-31.872-3.712-23.339-11.605-73.301-12.672-85.504zM681.301 336c-9.066-3.22-19.523-5.133-30.411-5.248-21.685 0-33.503 12.458-33.503 35.413-0.341 7.083 3.115 25.771 5.803 42.88 2.432 15.019 18.347 109.867 18.347 109.867h42.112l-4.907-24.405h25.429l-5.717-38.656h-25.557c-4.864-30.635-11.861-68.779-11.947-73.813 0-8.32 4.437-11.947 14.507-11.947 4.864 0 8.576 0.512 11.435 1.536l-5.589-35.627zM810.411 337.28c-12.807-4.141-27.542-6.529-42.835-6.529-0.136 0-0.272 0-0.408 0.001-47.126 0.043-71.659 24.661-71.659 71.808 0 55.040 31.232 95.573 73.685 95.573 34.688 0 56.875-22.699 56.875-58.283 0-11.776-1.536-23.296-5.205-39.595h-83.84c-2.859-23.339 12.117-33.067 36.608-33.067 15.061 0 28.672 3.115 43.776 10.155l-6.997-40.064zM786.731 432.725c0.256 3.371 4.48 28.715-19.584 28.715-13.397 0-23.040-10.24-26.88-28.715h46.507zM518.4 443.648c0-20.395 9.899-34.432 32.256-44.971 17.152-8.064 19.84-10.453 19.84-17.749 0-10.027-7.595-14.592-24.32-14.592-12.672 0-24.405 2.005-37.973 6.4l-5.845-37.205c9.643-2.133 18.219-4.053 44.117-4.779 44.672 0 65.323 17.067 65.323 53.803 0 22.144-8.619 35.115-29.867 44.885-17.749 8.107-19.797 9.984-19.797 17.493 0 8.704 7.040 13.141 20.736 13.141 8.32 0 19.669-0.896 30.464-2.432l5.973 37.333c-10.991 1.752-23.866 2.89-36.956 3.153-47.652 0.005-64.079-24.742-63.951-54.481zM1016.448 493.909c11.776 0 22.741-3.115 37.888-10.709l6.912 42.965c-6.187 2.432-28.075 16.725-46.549 16.725-28.373 0-52.352-14.080-69.205-37.291-24.576 8.149-34.688-8.32-47.061-24.704l-11.008-2.56c0.853 5.419 1.579 10.752 1.28 16.213h-38.869c-5.333-49.835-14.72-100.309-22.101-150.187l-1.92-10.837h42.368c3.128 16.51 7.814 49.057 11.925 81.782l17.344 22.41c2.389 8.875 9.856 11.861 24.832 11.52-1.963-10.496-2.987-21.547-2.987-33.024 0-52.651 28.373-85.461 73.984-85.461 11.776 0 21.845 1.579 37.461 5.803l7.467 45.099c-14.080-6.912-25.6-10.155-36.011-10.155-24.619 0-39.552 18.176-39.552 48.213 0 43.605 22.187 74.197 53.803 74.197z" />
<glyph unicode="&#xe93b;" glyph-name="gateway-card" horiz-adv-x="1280" d="M1152 960h-1024c-71.040 0-127.36-56.96-127.36-128l-0.64-768c0-71.040 56.96-128 128-128h1024c71.040 0 128 56.96 128 128v768c0 71.040-56.96 128-128 128zM1152 64h-1024v384h1024v-384zM1152 704h-1024v128h1024v-128z" />
<glyph unicode="&#xe93c;" glyph-name="gateway-mobile" horiz-adv-x="931" d="M842.473 648.145l-46.545-46.545c83.782-83.782 83.782-214.109 0-302.545l46.545-46.545c116.364 107.055 116.364 283.927 0 395.636zM744.727 550.4l-46.545-46.545c23.273-32.582 23.273-74.473 0-107.055l46.545-46.545c55.855 55.855 55.855 139.636 0 200.145zM558.545 960h-465.455c-51.2 0-93.091-41.891-93.091-93.091v-837.818c0-51.2 41.891-93.091 93.091-93.091h465.455c51.2 0 93.091 41.891 93.091 93.091v837.818c0 51.2-41.891 93.091-93.091 93.091zM558.545 75.636h-465.455v744.727h465.455v-744.727z" />
<glyph unicode="&#xe93d;" horiz-adv-x="1621" d="M370.048 345.301h-42.368l24.277 152.149-54.187-152.149h-28.885l-3.584 151.296-25.472-151.296h-39.68l33.152 197.931h60.885l1.707-122.539 41.131 122.539h65.749l-32.768-197.973z" />
<glyph unicode="&#xe93e;" horiz-adv-x="1621" d="M1375.147 531.499l-9.387-57.173c-11.563 15.232-24.021 26.24-40.448 26.24-21.376 0-40.832-16.213-53.589-40.064-17.749 3.712-36.053 9.941-36.053 9.941v-0.128c1.408 13.312 1.963 21.461 1.835 24.192h-38.912c-5.291-49.792-14.72-100.267-22.059-150.187l-1.963-10.795h42.368c5.717 37.163 10.112 68.053 13.355 92.501 14.507 13.099 21.717 24.491 36.352 23.765-6.485-15.659-10.24-33.707-10.24-52.224 0-40.235 20.309-66.816 51.115-66.816 15.531 0 27.435 5.376 39.083 17.792l-2.005-14.976h40.107l32.256 197.931h-41.813zM1322.197 370.731c-14.421 0-21.76 10.667-21.76 31.744 0 31.659 13.653 54.059 32.853 54.059 14.592 0 22.485-11.093 22.485-31.531 0-31.915-13.867-54.272-33.579-54.272z" />
<glyph unicode="&#xe93f;" horiz-adv-x="1621" d="M474.368 416.981c-2.819 0.417-6.087 0.665-9.409 0.683-24.041 0-36.201-8.235-36.201-24.491 0-10.027 5.973-16.427 15.189-16.427 17.28 0 29.696 16.427 30.421 40.235zM505.216 345.301h-35.115l0.811 16.64c-10.709-13.141-25.003-19.456-44.416-19.456-22.955 0-38.699 17.92-38.699 43.989 0 39.211 27.349 62.037 74.368 62.037 4.821 0 10.965-0.427 17.28-1.237 0.971 3.11 1.572 6.694 1.663 10.405 0.001 10.715-7.38 14.683-27.178 14.683-0.037 0-0.080 0-0.123 0-15.998 0-31.375-2.655-45.716-7.549l6.841 36.519c21.12 6.187 35.072 8.533 50.731 8.533 36.352 0 55.637-16.341 55.595-47.189 0.085-8.32-1.28-18.517-3.413-31.915-3.669-23.296-11.563-73.301-12.629-85.461zM1073.451 537.899l-6.955-42.965c-15.104 7.595-26.069 10.667-37.845 10.667-31.616 0-53.76-30.549-53.76-74.112 0-30.080 14.891-48.213 39.509-48.213 10.411 0 21.931 3.2 35.968 10.155l-7.424-45.141c-15.616-4.267-25.685-5.803-37.461-5.803-45.611 0-74.027 32.811-74.027 85.461 0 70.784 39.253 120.235 95.445 120.235 18.475 0 40.32-7.851 46.549-10.283zM1141.803 416.981c-2.82 0.418-6.088 0.665-9.41 0.683-24.041 0-36.201-8.235-36.201-24.491 0-10.027 5.973-16.427 15.189-16.427 17.237 0 29.696 16.427 30.421 40.235zM1172.651 345.301h-35.115l0.811 16.64c-10.709-13.141-25.003-19.456-44.373-19.456-23.040 0-38.741 17.92-38.741 43.989 0 39.211 27.392 62.037 74.368 62.037 4.821 0 10.965-0.427 17.28-1.237 0.966 3.108 1.567 6.692 1.663 10.402 0.001 10.718-7.38 14.686-27.178 14.686-0.032 0-0.071 0-0.109 0-16.002 0-31.384-2.655-45.73-7.549l6.885 36.519c21.077 6.187 34.987 8.533 50.688 8.533 36.395 0 55.637-16.341 55.595-47.189-0.332-11.513-1.56-22.505-3.619-33.2-3.463-22.011-11.399-72.016-12.423-84.176zM693.504 347.733c-9.065-3.218-19.522-5.131-30.41-5.248-21.729 0-33.547 12.458-33.547 35.413-0.299 7.083 3.157 25.771 5.845 42.88 2.432 15.061 18.347 109.867 18.347 109.867h42.112l-4.907-24.405h21.589l-5.717-38.656h-21.717c-4.864-30.635-11.861-68.736-11.947-73.813 0-8.32 4.437-11.947 14.507-11.947 4.821 0 8.533 0.512 11.435 1.536l-5.589-35.627zM822.613 349.013c-12.819-4.141-27.567-6.528-42.873-6.528-0.122 0-0.245 0-0.367 0-47.128 0.043-71.704 24.661-71.704 71.808 0 55.040 31.275 95.573 73.685 95.573 34.731 0 56.917-22.699 56.917-58.283 0-11.819-1.536-23.339-5.205-39.595h-83.84c-2.859-23.339 12.117-33.067 36.608-33.067 0.001 0 0.003 0 0.005 0 15.936 0 30.996 3.75 44.347 10.415l-7.573-40.324zM798.933 444.501c0.256 3.328 4.48 28.715-19.627 28.715-13.397 0-22.955-10.24-26.88-28.715h46.507zM530.603 455.381c0-20.395 9.856-34.389 32.256-44.971 17.152-8.064 19.797-10.453 19.797-17.749 0-10.027-7.552-14.592-24.32-14.592-12.629 0-24.405 2.005-37.973 6.4l-5.803-37.205c9.643-2.133 18.219-4.011 44.075-4.779 44.715 0 65.365 17.067 65.365 53.803 0 22.144-8.619 35.115-29.867 44.885-17.749 8.149-19.797 9.941-19.797 17.493 0 8.704 7.040 13.141 20.736 13.141 8.32 0 19.627-0.896 30.464-2.432l5.973 37.333c-10.992 1.753-23.867 2.891-36.957 3.153-47.694 0.005-64.078-24.742-63.95-54.481zM1396.907 345.301h-40.107l1.963 14.933c-11.605-12.373-23.509-17.749-39.040-17.749-30.805 0-51.157 26.539-51.157 66.816 0 53.547 31.573 98.688 68.949 98.688 16.427 0 28.843-6.741 40.448-21.973l9.387 57.173h41.813l-32.299-197.888zM1334.4 382.507c19.712 0 33.579 22.357 33.579 54.229 0 20.48-7.893 31.573-22.443 31.573-19.2 0-32.853-22.443-32.853-54.101 0-21.077 7.253-31.701 21.717-31.701zM1210.795 506.24c-5.291-49.792-14.72-100.267-22.101-150.144l-1.92-10.795h42.368c15.147 98.432 18.816 117.632 42.581 115.2 3.797 20.181 10.837 37.845 16.085 46.72-17.749 3.712-27.648-6.315-40.619-25.387 1.024 8.235 2.901 16.213 2.56 24.405h-38.955zM862.037 506.24c-5.333-49.792-14.763-100.267-22.101-150.144l-1.92-10.795h42.368c15.147 98.432 18.773 117.632 42.539 115.2 3.84 20.181 10.88 37.845 16.085 46.72-17.707 3.712-27.605-6.315-40.576-25.387 1.024 8.235 2.859 16.213 2.517 24.405h-38.912zM1415.467 357.888c0 6.951 5.635 12.587 12.587 12.587s12.587-5.635 12.587-12.587c0-6.951-5.635-12.587-12.587-12.587s-12.587 5.635-12.587 12.587zM1428.096 348.331c5.278 0 9.557 4.279 9.557 9.557s-4.279 9.557-9.557 9.557c-5.278 0-9.557-4.279-9.557-9.557s4.279-9.557 9.557-9.557zM1426.389 352.384h-2.56v11.051h4.651c0.137 0.013 0.297 0.021 0.458 0.021 0.862 0 1.673-0.213 2.386-0.589 0.868-0.584 1.38-1.651 1.38-2.76 0.001-0.020 0.001-0.045 0.001-0.069 0-1.266-0.788-2.349-1.9-2.783l2.028-4.871h-2.859l-1.707 4.352h-1.877v-4.352zM1426.389 357.205h1.664c0.597 0 1.28-0.043 1.835 0.341 0.512 0.427 0.768 1.195 0.768 1.92-0.007 0.669-0.283 1.271-0.725 1.706-0.512 0.427-1.408 0.299-1.963 0.299h-1.579v-4.267z" />
<glyph unicode="&#xe940;" horiz-adv-x="1664" d="M85.333 960h1459.925c47.128 0 85.333-38.205 85.333-85.333v-853.333c0-47.128-38.205-85.333-85.333-85.333h-1459.925c-47.128 0-85.333 38.205-85.333 85.333v853.333c0 47.128 38.205 85.333 85.333 85.333z" />
<glyph unicode="&#xe941;" horiz-adv-x="1664" d="M0 479.147h78.336l17.664 42.411h39.509l17.621-42.453h154.112v32.427l13.739-32.555h80l13.781 33.067v-32.939h382.933l-0.171 69.632h7.424c5.163-0.171 6.699-0.64 6.699-9.173v-60.459h198.059v16.213c16-8.533 40.832-16.213 73.557-16.213h83.328l17.835 42.453h39.509l17.451-42.453h160.597v40.32l24.32-40.32h128.64v266.368h-127.317v-31.445l-17.835 31.445h-130.688v-31.445l-16.384 31.445h-176.512c-29.525 0-55.467-4.096-76.501-15.573v15.573h-121.813v-15.573c-13.312 11.819-31.531 15.573-51.755 15.573h-445.013l-29.867-68.779-30.635 68.779h-140.16v-31.445l-15.403 31.445h-119.595l-55.467-126.635v-139.733zM494.379 517.547h-46.976l-0.171 149.547-66.475-149.547h-40.277l-66.603 149.675v-149.675h-93.227l-17.621 42.581h-95.445l-17.792-42.581h-49.792l82.091 190.976h68.096l77.952-180.821v180.821h74.837l59.989-129.579 55.083 129.579h76.373v-190.976zM147.371 599.765l-31.403 76.117-31.147-76.117h62.549zM681.387 517.547h-153.131v190.976h153.173v-39.765h-107.307v-34.432h104.704v-39.168h-104.704v-38.101h107.264v-39.509zM897.195 657.067c0.015-0.477 0.024-1.038 0.024-1.601 0-21.938-13.14-40.807-31.98-49.165 9.684-3.933 18.26-10.632 22.313-16.221 6.485-9.472 7.595-17.963 7.595-34.987v-37.547h-46.208l-0.171 24.064c0 11.52 1.109 28.032-7.253 37.205-6.699 6.741-16.896 8.192-33.408 8.192h-49.195v-69.461h-45.867v190.976h105.429c23.467 0 40.704-0.64 55.509-9.173 14.507-8.533 23.211-20.992 23.211-42.24zM839.253 628.736c-6.315-3.84-13.739-3.968-22.656-3.968h-55.723v42.453h56.448c7.979 0 16.341-0.384 21.76-3.456 5.973-2.773 9.6-8.704 9.6-16.896 0-8.32-3.499-15.061-9.429-18.133zM970.709 517.547h-46.763v190.976h46.763v-190.976zM1513.685 517.547h-64.981l-86.869 143.36v-143.36h-93.355l-17.835 42.581h-95.232l-17.323-42.581h-53.632c-22.272 0-50.475 4.907-66.475 21.12-16.085 16.213-24.491 38.187-24.491 72.917 0 28.288 5.035 54.187 24.747 74.667 14.805 15.232 37.973 22.272 69.589 22.272h44.373v-40.96h-43.435c-16.725 0-26.197-2.432-35.285-11.307-7.808-8.021-13.184-23.211-13.184-43.221 0-20.48 4.096-35.243 12.629-44.885 7.040-7.552 19.883-9.813 31.915-9.813h20.608l64.597 150.187h68.693l77.611-180.651v180.608h69.803l80.555-132.992v132.992h46.933v-190.933zM1235.072 599.765l-31.744 76.117-31.573-76.117h63.275zM1630.464 212.608c-11.093-16.213-32.853-24.405-62.208-24.405h-88.491v40.96h88.149c8.747 0 14.848 1.109 18.56 4.693 3.336 3.075 5.419 7.466 5.419 12.344 0 0.040 0 0.081 0 0.121 0.008 0.181 0.013 0.4 0.013 0.621 0 4.808-2.167 9.11-5.578 11.983-3.352 2.963-8.216 4.286-16.194 4.286-43.051 1.451-96.725-1.323-96.725 59.093 0 27.733 17.664 56.875 65.749 56.875h91.307v38.016h-84.821c-25.6 0-44.203-6.101-57.387-15.616v15.616h-125.44c-20.053 0-43.648-4.949-54.784-15.616v15.616h-224.085v-15.616c-17.835 12.8-47.915 15.616-61.781 15.616h-147.84v-15.616c-14.080 13.653-45.483 15.616-64.597 15.616h-165.419l-37.845-40.789-35.413 40.789h-247.168v-266.539h242.432l38.997 41.429 36.779-41.387 149.419-0.171v62.72h14.677c19.84-0.341 43.221 0.469 63.872 9.387v-71.979h123.264v69.504h5.973c7.552 0 8.32-0.341 8.32-7.893v-61.568h374.443c23.765 0 48.64 6.059 62.379 17.067v-17.067h118.784c24.747 0 48.853 3.413 67.2 12.288v49.621zM888.021 315.136c0-53.077-39.765-64-79.829-64h-57.173v-64.085h-89.131l-56.448 63.232-58.624-63.232h-181.589v191.019h184.363l56.405-62.635 58.283 62.635h146.475c36.395 0 77.227-10.027 77.227-62.933zM523.563 227.243h-112.683v37.973h100.651v38.997h-100.651v34.731h114.944l50.133-55.68-52.395-56.021zM705.195 205.355l-70.4 77.824 70.4 75.307v-153.131zM809.259 290.261h-59.221v48.64h59.733c16.555 0 28.075-6.699 28.075-23.381 0-16.512-10.965-25.216-28.587-25.216zM1119.616 378.069h152.96v-39.509h-107.349v-34.731h104.747v-38.955h-104.747v-38.016l107.349-0.171v-39.637h-152.96v191.019zM1060.779 275.797c10.24-3.712 18.56-10.453 22.443-16 6.485-9.344 7.424-18.048 7.595-34.901v-37.845h-45.995v23.893c0 11.52 1.109 28.501-7.424 37.376-6.699 6.827-16.896 8.533-33.621 8.533h-48.981v-69.803h-46.080v191.019h105.813c23.211 0 40.107-1.024 55.168-9.003 14.507-8.704 23.595-20.651 23.595-42.453 0-30.464-20.48-46.037-32.512-50.773zM1034.88 299.947c-6.144-3.584-13.739-3.925-22.613-3.925h-55.723v42.923h56.448c8.149 0 16.341-0.171 21.888-3.456 5.931-3.115 9.472-9.003 9.472-17.195 0.016-0.303 0.025-0.657 0.025-1.014 0-7.249-3.75-13.621-9.416-17.284zM1448.661 287.787c8.96-9.173 13.739-20.779 13.739-40.448 0-41.088-25.813-60.288-72.021-60.288h-89.301v40.96h88.96c8.661 0 14.848 1.152 18.688 4.693 3.337 3.096 5.419 7.505 5.419 12.4 0 0.036 0 0.071 0 0.107 0.003 0.101 0.004 0.226 0.004 0.352 0 4.881-2.14 9.262-5.533 12.257-3.559 2.917-8.38 4.282-16.359 4.282-42.88 1.451-96.555-1.365-96.555 59.093 0 27.733 17.493 56.875 65.536 56.875h91.904v-40.661h-84.096c-8.363 0-13.781-0.299-18.347-3.413-5.035-3.115-6.912-7.68-6.912-13.781 0-7.211 4.267-12.117 10.027-14.208 4.821-1.707 10.027-2.176 17.835-2.176l24.661-0.683c24.917-0.597 41.984-4.864 52.352-15.36zM1630.592 338.944h-83.541c-8.363 0-13.909-0.341-18.56-3.456-4.864-3.115-6.699-7.68-6.699-13.739 0-7.253 4.053-12.117 10.027-14.251 4.821-1.664 10.027-2.133 17.664-2.133l24.832-0.683c25.088-0.597 41.813-4.907 52.011-15.36 1.835-1.451 2.987-3.115 4.267-4.736v54.357z" />
<glyph unicode="&#xe942;" horiz-adv-x="1579" d="M111.317 917.333c-37.803 0-68.651-31.147-68.651-69.76v-799.147c0-38.613 30.805-69.76 68.651-69.76h1355.989c37.803 0 68.651 31.147 68.651 69.76v799.147c0.043 38.613-30.763 69.76-68.608 69.76h-1355.989zM111.317 960h1355.989c61.525 0 111.36-50.347 111.36-112.427v-799.147c0-62.080-49.835-112.427-111.317-112.427h-1355.989c-61.525 0-111.36 50.347-111.36 112.427v799.147c0 62.080 49.835 112.427 111.317 112.427z" />
<glyph unicode="&#xe943;" horiz-adv-x="1579" d="M668.672 629.12c18.048 0 33.195-3.669 51.627-12.459v-46.507c-17.451 16.085-32.597 22.784-52.608 22.784-39.381 0-70.357-30.677-70.357-69.547 0-41.045 29.995-69.931 72.277-69.931 19.029 0 33.92 6.4 50.688 22.187v-46.507c-19.072-8.491-34.56-11.819-52.608-11.819-63.957 0-113.621 46.165-113.621 105.728 0 58.923 50.987 106.069 114.603 106.069zM470.187 627.84c23.595 0 45.184-7.637 63.232-22.485l-21.973-27.093c-10.923 11.52-21.248 16.427-33.835 16.427-18.091 0-31.275-9.685-31.275-22.485 0-10.923 7.381-16.725 32.597-25.472 47.744-16.469 61.867-31.019 61.867-63.232 0-39.253-30.592-66.56-74.24-66.56-31.915 0-55.125 11.861-74.496 38.613l27.136 24.576c9.643-17.579 25.813-27.008 45.824-27.008 18.731 0 32.597 12.16 32.597 28.587 0 8.491-4.224 15.787-12.587 20.907-4.267 2.475-12.587 6.101-29.013 11.563-39.467 13.397-52.992 27.648-52.992 55.595 0 33.152 29.056 58.027 67.157 58.027zM949.931 624.299h45.867l57.387-136.107 58.155 136.107h45.525l-93.013-207.829h-22.613l-91.307 207.787zM137.771 624h61.653c68.096 0 115.541-41.685 115.541-101.461 0-29.867-14.507-58.667-39.083-77.824-20.651-16.128-44.203-23.381-76.8-23.381h-61.269v202.667zM334.293 624h41.984v-202.667h-41.984v202.667zM1175.808 624h119.083v-34.347h-77.099v-44.971h74.24v-34.347h-74.24v-54.699h77.099v-34.304h-119.040v202.667zM1322.709 624h62.251c48.427 0 76.16-21.931 76.16-59.861 0-31.019-17.408-51.371-49.067-57.429l67.797-85.333h-51.627l-58.112 81.365h-5.461v-81.408h-41.984v202.667zM1364.651 592.043v-61.355h12.245c26.795 0 41.003 10.965 41.003 31.317 0 19.755-14.208 30.037-40.32 30.037h-12.928zM179.755 589.653v-133.973h11.264c27.136 0 44.245 4.864 57.429 16.085 14.507 12.16 23.253 31.573 23.253 51.029 0 19.413-8.704 38.272-23.253 50.475-13.867 11.819-30.293 16.384-57.429 16.384h-11.264z" />
<glyph unicode="&#xe944;" glyph-name="gateway-emoney" horiz-adv-x="1536" d="M1238.4 573.248c-44.94 221.879-238.384 386.56-470.292 386.56-0.038 0-0.076 0-0.115 0-184.954 0-345.594-104.96-425.594-258.56-193.383-21.508-342.4-184.050-342.4-381.395 0-0.016 0-0.031 0-0.047 0-211.838 172.16-383.998 384-383.998h832c176.64 0 320 143.36 320 320 0 168.96-131.2 305.92-297.6 317.44zM844.608 106.816v-107.008h-149.504v108.16c-95.744 20.032-176.96 81.664-183.104 190.272h109.76c5.632-58.816 45.888-104.704 148.416-104.704 109.76 0 134.4 54.848 134.4 89.024 0 46.464-24.64 90.176-149.568 119.872-138.88 33.664-234.048 90.752-234.048 205.568 0 96.32 77.824 159.040 174.144 179.776v108.032h149.504v-109.184c104.192-25.216 156.288-104.128 159.616-189.824h-109.76c-2.816 62.144-35.84 104.704-124.288 104.704-84.032 0-134.4-38.080-134.4-91.84 0-47.040 36.416-77.824 149.504-106.944 113.152-29.12 234.112-77.824 234.112-218.944-0.64-102.528-77.312-158.528-174.72-176.96z" />
<glyph unicode="&#xe945;" glyph-name="gateway-cash" horiz-adv-x="1280" d="M576 128h128v64h64c35.2 0 64 28.8 64 64v192c0 35.2-28.8 64-64 64h-192v64h256v128h-128v64h-128v-64h-64c-35.2 0-64-28.8-64-64v-192c0-35.2 28.8-64 64-64h192v-64h-256v-128h128v-64zM1152 960h-1024c-71.040 0-127.36-56.96-127.36-128l-0.64-768c0-71.040 56.96-128 128-128h1024c71.040 0 128 56.96 128 128v768c0 71.040-56.96 128-128 128zM1152 64h-1024v768h1024v-768z" />
<glyph unicode="&#xe946;" horiz-adv-x="1579" d="M854.315 631.467c61.44 0 111.232-48.256 111.232-107.904v-0.043c0-59.648-49.835-107.947-111.232-107.947-61.44 0-111.232 48.299-111.232 107.947v0.043c0 59.648 49.792 107.904 111.232 107.904zM1578.667 371.2c-51.712-37.547-438.912-305.664-1109.333-435.2h1000.149c60.288 0 109.184 50.432 109.184 112.597v322.603z" />
</font>
</defs>
</svg>
